<svg width="116" height="104" viewBox="0 0 116 104" fill="none"
  xmlns="http://www.w3.org/2000/svg">
  <path fill-rule="evenodd" clip-rule="evenodd" d="M0 82.5352H9.05216V84.5259C9.05216 87.56 8.08995 90.7301 6.93689 92.1497C7.81428 92.1738 8.99649 93.8282 8.88251 95.005L8.88781 95.9523L8.43189 103.699H0V82.5352ZM5.14767 89.0143C5.73082 88.2297 6.02505 87.1383 6.02505 85.7347V85.3771H3.0218V90.1937C3.88063 90.1777 4.67584 89.7348 5.14502 89.0116H5.14767V89.0143ZM5.71492 102.044L6.0171 97.1344C6.09662 95.5867 5.73612 94.5407 4.93031 93.991C4.36041 94.1324 3.7746 94.2071 3.18615 94.2071C3.16229 94.2071 3.13578 94.2071 3.11193 94.2071V102.047H5.71492V102.044Z" fill="#BDBDBD"/>
  <path fill-rule="evenodd" clip-rule="evenodd" d="M11.4378 82.5352H20.4953V103.699H17.455V93.025C17.4311 93.025 17.4046 93.025 17.3781 93.025C16.7923 93.025 16.2065 92.9529 15.6366 92.8088C14.8281 93.3612 14.465 94.4073 14.5445 95.9523L15.0322 103.699H12.0422L11.5889 95.9523L11.5571 95.3119C11.5571 93.5427 12.0926 92.1711 13.1608 91.1944C12.3179 89.3078 11.4272 88.4406 11.4272 85.4198L11.4378 82.5352ZM15.345 88.9396C15.8168 89.6654 16.6173 90.1057 17.4788 90.1137V85.3691H14.4676V85.7267C14.4676 87.1357 14.7592 88.2297 15.345 89.0116V88.9396Z" fill="#BDBDBD"/>
  <path fill-rule="evenodd" clip-rule="evenodd" d="M23.0981 96.7422H26.1279V100.862H28.8343L29.1364 95.5547C29.1524 95.3999 29.1603 95.2452 29.1603 95.0904C29.1603 94.6181 29.0914 94.1484 28.9562 93.6975C28.8131 93.2892 28.487 92.9716 28.0788 92.8409C27.4798 93.025 26.8542 93.1184 26.2286 93.1184C26.1995 93.1184 26.165 93.1184 26.1359 93.1184V90.2845C26.9947 90.2711 27.7952 89.8335 28.2697 89.1103C28.8528 88.3258 29.1471 87.2317 29.1471 85.8308V85.3718H26.1279V88.5153H23.0981V82.5379H32.1583V84.6113C32.1583 87.6827 31.5724 89.9189 30.4008 91.3198C31.0821 91.4506 32.1874 91.8829 32.1848 95.6775L32.153 96.2859L31.6785 103.702H23.0981V96.7422Z" fill="#BDBDBD"/>
  <path fill-rule="evenodd" clip-rule="evenodd" d="M35.6994 88.8195C36.8312 87.7708 38.305 87.2451 40.1234 87.2477L40.1526 85.3585H34.488V82.5245H43.1823V103.688H40.1526V96.8035H37.3084L37.6397 103.699H34.6126L34.1673 93.7268C34.0559 91.5093 34.5675 89.8762 35.6994 88.8195ZM37.152 93.9563H40.1499V90.095C39.14 90.095 38.3713 90.3805 37.8491 90.9516C37.3269 91.52 37.091 92.4433 37.1387 93.7268L37.152 93.9563Z" fill="#BDBDBD"/>
  <path fill-rule="evenodd" clip-rule="evenodd" d="M46.0293 82.5352H49.0564V90.1884H52.0252V82.5352H55.055V103.696H52.0252V93.0223H49.0564V103.696H46.0293V82.5352Z" fill="#BDBDBD"/>
  <path fill-rule="evenodd" clip-rule="evenodd" d="M57.8991 82.5352H60.9289V89.089C60.9978 89.0863 61.0694 89.0837 61.1409 89.0837C62.6333 89.0837 64.0753 89.652 65.17 90.6714C66.2807 91.7308 66.7737 93.3586 66.6518 95.552L66.1958 103.696H57.8965V82.5352H57.8991ZM63.6512 101.3L63.9533 95.9923C64.0329 94.7328 63.8208 93.8122 63.3172 93.2331C62.8109 92.6754 62.0925 92.3579 61.3424 92.3579C61.2894 92.3579 61.2364 92.3605 61.1834 92.3632V101.311L63.6512 101.3ZM68.5762 82.5779H71.6059V103.742H68.5762V82.5779Z" fill="#BDBDBD"/>
  <path fill-rule="evenodd" clip-rule="evenodd" d="M74.4106 82.5352H77.4404V90.8902L80.4384 88.3258V82.5352H83.4337V103.696H80.4384V92.043L77.4404 94.6047V103.694H74.4106V82.5352Z" fill="#BDBDBD"/>
  <path d="M89.7343 99.029H86.2539V103.683H89.7343V99.029Z" fill="#BDBDBD"/>
  <path fill-rule="evenodd" clip-rule="evenodd" d="M91.9478 82.5352H101.016V86.1136C101.016 91.7895 99.0013 94.6261 94.9696 94.6234V103.712H91.9478V82.5352ZM97.1034 90.61C97.6892 89.8282 97.9808 88.7341 97.9808 87.3305V85.3798H94.9696V91.7842C95.831 91.7761 96.6315 91.3359 97.1034 90.61Z" fill="#BDBDBD"/>
  <path fill-rule="evenodd" clip-rule="evenodd" d="M107.727 82.3778V80.5525H110.757V82.3778C114.312 82.3778 116.061 84.1256 115.997 87.6213L115.695 96.6488C115.613 98.1725 115.189 99.3359 114.423 100.139C113.657 100.94 112.62 101.553 110.757 101.348V103.696H107.727V101.348C106.055 101.348 104.833 100.945 104.064 100.142C103.295 99.3386 103.009 99.2585 102.792 96.6514L102.487 87.624C102.428 84.1256 104.175 82.3778 107.727 82.3778ZM105.79 96.2512C105.829 97.1077 105.975 97.6841 106.23 98.0204C106.487 98.3566 106.98 98.5114 107.727 98.5114V85.217C106.839 85.217 106.248 85.4385 105.949 85.8761C105.649 86.3138 105.509 87.0396 105.509 88.0563L105.79 96.2512ZM112.257 98.0204C112.509 97.6948 112.655 97.1077 112.695 96.2512L112.968 88.0509C112.968 87.0343 112.822 86.3084 112.528 85.8708C112.236 85.4332 111.645 85.2117 110.749 85.2117V98.5087C111.504 98.5114 112.003 98.3486 112.257 98.0204Z" fill="#BDBDBD"/>
  <path d="M81.0107 79.1809H76.5337V80.5526H81.0107V79.1809Z" fill="#BDBDBD"/>
  <path d="M116 75.5625H0.0317383V77.0702H116V75.5625Z" fill="#BDBDBD"/>
  <path fill-rule="evenodd" clip-rule="evenodd" d="M17.5081 53.2033C14.0118 55.3007 11.0324 56.5709 8.9198 57.3528C6.39898 58.2841 2.07568 59.637 2.07568 59.637L2.66679 61.8198C3.74828 61.5156 5.12399 61.1073 6.70911 60.5843C7.56264 60.3015 9.10535 59.7918 10.8442 59.1113C12.5831 58.4308 14.8998 57.4328 17.5929 56.0025C19.467 56.5709 22.0487 57.2087 25.1686 57.5422C29.5529 58.0119 32.9007 57.6543 35.1247 57.4062C38.226 57.0592 42.4857 56.3041 47.3842 54.5482L46.1039 52.5762C42.3637 53.8918 39.0769 54.5375 36.5932 54.8738C34.1519 55.2047 29.9956 55.741 24.6729 54.9645C21.6909 54.5269 19.2496 53.8117 17.5081 53.2033Z" fill="#BDBDBD"/>
  <path fill-rule="evenodd" clip-rule="evenodd" d="M16.3446 55.1726C15.8992 54.9404 15.2737 54.5855 14.5792 54.0759C13.0444 52.9524 11.3771 51.7303 10.7913 49.6008C10.3937 48.1492 10.4918 46.2626 11.5335 44.6722C12.5169 43.1725 13.9086 42.5934 14.4042 42.3959C14.7727 42.2492 17.0496 41.3846 19.4353 42.516C19.8408 42.7082 20.8216 43.1885 21.5983 44.2532C22.9952 46.1718 22.6108 48.4614 22.4518 49.39C21.9747 52.2133 20.1483 53.9745 19.5546 54.5455C19.2338 54.8524 18.9449 55.0899 18.7355 55.2527C18.1126 54.8257 17.4897 54.3987 16.8694 53.9718C18.0887 53.1339 18.7806 52.1893 19.1464 51.5995C19.5466 50.9484 20.7606 48.9871 20.1801 46.7829C20.0582 46.3213 19.8249 45.438 19.0297 44.7949C17.9111 43.8876 16.326 43.9703 15.226 44.472C14.1047 44.979 13.5401 45.8916 13.3334 46.2759C13.1319 46.7109 12.7714 47.6475 13.002 48.7442C13.2088 49.7262 13.7787 50.332 14.4944 51.0712C15.0643 51.6609 16.0371 52.5175 17.5109 53.2059L18.314 53.4968L16.3446 55.1726Z" fill="#BDBDBD"/>
  <path fill-rule="evenodd" clip-rule="evenodd" d="M75.3171 31.1217C76.3297 29.9556 77.3105 28.7201 78.2568 27.4152C68.0091 27.3191 55.0101 14.94 51.9167 11.8393C51.6437 12.1461 51.368 12.4557 51.1056 12.7759C50.6921 13.2802 50.3024 13.7926 49.926 14.3129C51.9671 16.6052 65.2577 30.9349 75.3171 31.1217Z" fill="#BDBDBD"/>
  <path fill-rule="evenodd" clip-rule="evenodd" d="M99.3669 30.3958C101.771 29.9075 107.301 28.4692 109.784 25.2616C109.617 24.6639 109.429 24.0742 109.241 23.4711C106.201 25.7073 100.994 27.0495 100.401 27.2016C100.083 28.301 99.7407 29.3658 99.3669 30.3958Z" fill="#BDBDBD"/>
  <path fill-rule="evenodd" clip-rule="evenodd" d="M102.187 21.5738C102.121 21.5872 101.856 21.6165 101.766 21.6139C101.554 22.7266 101.323 23.77 101.063 24.8294C102.959 24.2717 106.596 23.0388 108.475 21.3977C108.215 20.7706 107.937 20.1569 107.643 19.5431C105.594 20.8907 102.574 21.4991 102.187 21.5738Z" fill="#BDBDBD"/>
  <path fill-rule="evenodd" clip-rule="evenodd" d="M43.8294 38.6014C49.5762 45.3713 53.2235 47.1378 53.2235 47.1378C53.3428 47.1965 53.4435 47.2419 53.5045 47.2712C54.7344 46.7135 56.0757 46.0544 57.4912 45.2912C51.5589 42.8336 46.0083 37.3418 43.3708 34.4626C43.3708 35.7621 43.453 37.0643 43.6015 38.3505C43.628 38.3772 43.6571 38.4066 43.6889 38.4413C43.7632 38.5266 43.8162 38.588 43.8294 38.6014Z" fill="#BDBDBD"/>
  <path fill-rule="evenodd" clip-rule="evenodd" d="M68.3273 62.6604C68.2425 62.623 67.6355 62.3482 67.5215 62.2841C65.4487 63.1274 63.3095 63.8692 61.1519 64.4749C66.0822 67.1354 71.601 68.5337 77.1966 68.5337C84.7512 68.5337 92.091 65.9906 98.0498 61.3261C80.9288 67.453 68.9025 62.8899 68.3273 62.6604Z" fill="#BDBDBD"/>
  <path fill-rule="evenodd" clip-rule="evenodd" d="M77.6096 57.6223C77.4161 57.5609 77.1802 57.4915 77.0794 57.4435C74.9377 58.759 72.7005 59.9785 70.4182 61.0273C74.9801 62.2121 86.6644 64.6831 100.695 58.3027C101.288 57.9905 101.927 57.6516 102.137 57.5262C102.471 57.1686 103.009 56.5362 103.324 56.1439C104.085 55.2073 104.798 54.2253 105.455 53.214C92.5039 61.6864 78.3014 57.7957 77.6096 57.6223Z" fill="#BDBDBD"/>
  <path fill-rule="evenodd" clip-rule="evenodd" d="M104.215 13.8993C103.796 13.3362 103.351 12.7865 102.892 12.2448C102.85 13.0641 102.792 13.8619 102.728 14.6571C103.253 14.4703 103.754 14.2168 104.215 13.8993Z" fill="#BDBDBD"/>
  <path fill-rule="evenodd" clip-rule="evenodd" d="M87.4175 6.48895C87.709 5.10668 87.9556 3.67905 88.157 2.21405C84.6554 1.01591 80.9657 0.39682 77.26 0.39682C77.0453 0.39682 76.82 0.402157 76.6079 0.404825C79.3752 3.07063 84.2658 7.02265 87.4175 6.48895Z" fill="#BDBDBD"/>
  <path fill-rule="evenodd" clip-rule="evenodd" d="M102.145 19.4044C103.258 19.1562 105.405 18.5345 106.635 17.6138C106.256 16.936 105.853 16.2689 105.427 15.6151C104.528 16.2262 103.526 16.6772 102.474 16.944C102.378 17.7846 102.27 18.6038 102.145 19.4044Z" fill="#BDBDBD"/>
  <path fill-rule="evenodd" clip-rule="evenodd" d="M44.479 43.0764C45.0728 45.3953 45.9183 47.6582 46.9866 49.801C47.7553 49.5608 49.0621 49.1232 50.7532 48.4481C48.2536 47.1939 46.0509 44.9791 44.479 43.0764Z" fill="#BDBDBD"/>
  <path fill-rule="evenodd" clip-rule="evenodd" d="M85.1723 51.4021C83.3751 53.0085 81.4666 54.5028 79.4839 55.8638C84.3082 56.683 93.3895 57.4168 102.473 52.7817C104.374 51.813 106.039 50.7269 107.489 49.6222C107.918 48.6989 108.642 47.1165 108.986 46.1638C107.618 47.1565 105.633 48.4214 103.062 49.4994C102.309 49.8143 98.6379 51.314 93.4637 51.7383C91.3935 51.9117 88.5334 51.9518 85.1723 51.4021Z" fill="#BDBDBD"/>
  <path fill-rule="evenodd" clip-rule="evenodd" d="M50.6978 55.6556C51.5804 56.7737 52.5506 57.8491 53.5685 58.8391C58.8752 57.3421 95.1713 45.6542 96.7034 6.60638C95.9453 6.07002 95.1739 5.56034 94.3893 5.09335C93.1939 18.6279 88.4146 28.6827 82.3498 36.0824C71.2354 49.6489 55.8772 54.3881 50.6978 55.6556Z" fill="#BDBDBD"/>
  <path fill-rule="evenodd" clip-rule="evenodd" d="M55.3943 60.5176L55.6673 60.7578C56.5977 61.5289 57.5758 62.2601 58.5857 62.9246C65.9574 61.1794 72.9526 58.0226 79.1446 53.6409C93.1483 43.6608 100.438 29.0002 100.835 10.0674C100.167 9.41627 99.4782 8.7785 98.7466 8.17276C97.909 21.7927 92.968 32.125 86.6302 39.8663C75.7332 53.1473 60.7381 58.8258 55.3943 60.5176Z" fill="#BDBDBD"/>
  <path fill-rule="evenodd" clip-rule="evenodd" d="M98.471 32.7094C97.8587 34.1798 97.1987 35.5861 96.491 36.931C99.1814 36.3786 107.468 34.3319 110.715 29.6327C110.627 29.0029 110.516 28.3758 110.391 27.7487C106.259 31.5994 98.866 32.6641 98.5108 32.7121L98.471 32.7094Z" fill="#BDBDBD"/>
  <path fill-rule="evenodd" clip-rule="evenodd" d="M95.2953 39.0764C94.5557 40.3359 93.7738 41.5367 92.9626 42.6842C96.2257 42.7882 105.302 42.468 110.757 35.4739C110.842 35.3672 110.865 35.3112 111.03 35.1324C111.048 34.2838 111.03 33.4352 110.99 32.5866C109.54 33.8782 106.717 36.1491 103.099 37.5153C101.487 38.1237 99.9499 38.468 99.7113 38.5187C97.9937 38.8976 96.4828 39.0337 95.2953 39.0764Z" fill="#BDBDBD"/>
  <path fill-rule="evenodd" clip-rule="evenodd" d="M91.4809 44.7175C91.4809 44.7175 91.4623 44.7175 91.4517 44.7175C91.2317 45.0004 91.0117 45.2913 90.7864 45.5661C89.6439 46.9457 88.422 48.2799 87.147 49.5368C91.2105 49.809 103.621 49.9211 109.861 42.3026C109.861 42.3026 110.134 42.001 110.203 41.929C110.449 40.7976 110.648 39.6474 110.778 38.4947C103.221 46.0838 91.9898 44.7923 91.4809 44.7175Z" fill="#BDBDBD"/>
  <path fill-rule="evenodd" clip-rule="evenodd" d="M48.0015 51.7036C48.4176 52.4188 48.8656 53.1072 49.3321 53.7904C54.9569 52.5575 89.4399 43.41 92.3557 3.99126C91.6453 3.63368 90.9111 3.27611 90.1768 2.98257C88.4274 15.0414 83.6375 24.3411 77.8378 31.4232C66.8798 44.8136 52.3274 50.3053 48.0015 51.7036Z" fill="#BDBDBD"/>
  <path fill-rule="evenodd" clip-rule="evenodd" d="M85.6708 11.4684C85.7715 11.4871 85.8723 11.5004 85.8723 11.5004C85.9703 11.5137 86.0552 11.5217 86.1241 11.5271C86.413 10.5904 86.6781 9.63513 86.9219 8.66381C81.6099 8.73586 74.9249 1.80583 73.7904 0.586334C72.3245 0.7331 70.864 0.986605 69.4326 1.32016C72.3404 4.13274 74.9328 6.16078 76.8572 7.54038C76.8572 7.54038 79.9506 9.75521 82.421 10.6251C83.5502 11.0254 85.5489 11.447 85.6708 11.4684Z" fill="#BDBDBD"/>
  <path fill-rule="evenodd" clip-rule="evenodd" d="M63.7788 3.19339C65.9497 5.71777 74.2332 14.5878 84.5126 16.0795C84.8493 15.2442 85.1674 14.3903 85.4695 13.5151C78.3789 13.0561 69.1571 4.082 67.071 1.96323C65.9577 2.31547 64.8497 2.72908 63.7788 3.19339Z" fill="#BDBDBD"/>
  <path fill-rule="evenodd" clip-rule="evenodd" d="M82.4607 20.5838C82.8159 19.8687 83.309 18.8707 83.6483 18.1102C72.07 16.1542 63.3227 6.02997 61.7879 4.12735C60.4625 4.80781 59.1716 5.58967 57.947 6.44359C59.7124 8.16742 69.7586 17.5151 77.8061 19.7566C79.4734 20.2209 82.0048 20.5838 82.4607 20.5838Z" fill="#BDBDBD"/>
  <path fill-rule="evenodd" clip-rule="evenodd" d="M56.2106 7.72446C55.2193 8.51699 54.2624 9.38158 53.3638 10.2862C56.2928 13.2082 69.5596 26.0836 78.9802 25.4885C79.1445 25.4858 79.399 25.4645 79.619 25.4431C80.2949 24.4211 80.9417 23.3484 81.562 22.2436C71.6616 23.0015 57.2789 8.79185 56.2106 7.72446Z" fill="#BDBDBD"/>
  <path fill-rule="evenodd" clip-rule="evenodd" d="M62.3392 39.7141C62.4584 39.7648 63.0204 40.0023 63.7069 40.2879C64.1496 40.472 64.518 40.6241 64.7645 40.7228C66.0263 39.8155 67.3013 38.8335 68.5657 37.7688C58.5566 35.5433 49.0724 25.3577 45.8544 21.5925C45.4224 22.6679 45.0354 23.7807 44.7173 24.8934C46.3713 27.3431 48.6721 30.201 51.8 32.9442C51.8 32.9442 55.1001 35.8395 59.2007 38.1344C59.373 38.2331 61.0059 39.1457 62.3392 39.7141Z" fill="#BDBDBD"/>
  <path fill-rule="evenodd" clip-rule="evenodd" d="M62.6122 42.2172C54.8722 40.2585 47.087 31.3271 44.0758 27.5406C43.8161 28.8108 43.6252 30.1023 43.5112 31.3938C45.2686 33.6407 46.9757 35.3752 48.3647 36.6534C48.3647 36.6534 52.4388 40.3973 57.5547 43.1244C58.061 43.394 58.5487 43.6288 58.5487 43.6288C58.9516 43.8209 59.3041 43.9757 59.5745 44.0904C60.5659 43.5194 61.5784 42.895 62.6122 42.2172Z" fill="#BDBDBD"/>
  <path fill-rule="evenodd" clip-rule="evenodd" d="M70.387 35.9863C70.4426 35.9969 70.4638 35.9943 70.5672 36.0103C71.5665 35.095 72.5526 34.1237 73.5254 33.0963C63.3229 31.5993 51.559 19.2923 48.6804 16.1248C48.0044 17.1895 47.3709 18.3103 46.8196 19.4497C49.123 22.2196 59.8849 34.5933 70.387 35.9863Z" fill="#BDBDBD"/>
</svg>
