<svg width="32" height="32" viewBox="0 0 32 32" fill="none"
  xmlns="http://www.w3.org/2000/svg">
  <path d="M16.0079 0.242401C9.4282 0.242401 7.5039 0.249189 7.12985 0.280219C5.77959 0.392462 4.93937 0.605068 4.024 1.06083C3.31857 1.41113 2.76222 1.81719 2.21315 2.3864C1.21318 3.42446 0.607136 4.70155 0.387749 6.21961C0.281085 6.95658 0.250056 7.10689 0.243753 10.8713C0.241329 12.126 0.243753 13.7774 0.243753 15.9925C0.243753 22.567 0.251026 24.4894 0.28254 24.8628C0.391628 26.1767 0.597682 27.0034 1.03403 27.9076C1.86795 29.6385 3.46063 30.9379 5.33693 31.4228C5.98661 31.59 6.70416 31.6822 7.62535 31.7258C8.01564 31.7428 11.9937 31.7549 15.9742 31.7549C19.9547 31.7549 23.9352 31.75 24.3158 31.7306C25.3824 31.6805 26.0018 31.5973 26.6866 31.4203C28.575 30.9331 30.1386 29.6531 30.9895 27.8979C31.4174 27.0155 31.6343 26.1573 31.7325 24.912C31.7538 24.6405 31.7628 20.3115 31.7628 15.9883C31.7628 11.6645 31.7531 7.34349 31.7318 7.07198C31.6324 5.80652 31.4154 4.95561 30.9737 4.05622C30.6113 3.31998 30.2089 2.77016 29.6247 2.20798C28.582 1.2121 27.3069 0.606038 25.7875 0.386886C25.0512 0.280462 24.9046 0.248947 21.1374 0.242401H16.0079Z" fill="url(#paint0_radial)"/>
  <path d="M16.0079 0.242401C9.4282 0.242401 7.5039 0.249189 7.12985 0.280219C5.77959 0.392462 4.93937 0.605068 4.024 1.06083C3.31857 1.41113 2.76222 1.81719 2.21315 2.3864C1.21318 3.42446 0.607136 4.70155 0.387749 6.21961C0.281085 6.95658 0.250056 7.10689 0.243753 10.8713C0.241329 12.126 0.243753 13.7774 0.243753 15.9925C0.243753 22.567 0.251026 24.4894 0.28254 24.8628C0.391628 26.1767 0.597682 27.0034 1.03403 27.9076C1.86795 29.6385 3.46063 30.9379 5.33693 31.4228C5.98661 31.59 6.70416 31.6822 7.62535 31.7258C8.01564 31.7428 11.9937 31.7549 15.9742 31.7549C19.9547 31.7549 23.9352 31.75 24.3158 31.7306C25.3824 31.6805 26.0018 31.5973 26.6866 31.4203C28.575 30.9331 30.1386 29.6531 30.9895 27.8979C31.4174 27.0155 31.6343 26.1573 31.7325 24.912C31.7538 24.6405 31.7628 20.3115 31.7628 15.9883C31.7628 11.6645 31.7531 7.34349 31.7318 7.07198C31.6324 5.80652 31.4154 4.95561 30.9737 4.05622C30.6113 3.31998 30.2089 2.77016 29.6247 2.20798C28.582 1.2121 27.3069 0.606038 25.7875 0.386886C25.0512 0.280462 24.9046 0.248947 21.1374 0.242401H16.0079Z" fill="url(#paint1_radial)"/>
  <path d="M16.0004 4.36356C12.8402 4.36356 12.4436 4.37737 11.2025 4.43386C9.96372 4.49059 9.11817 4.68671 8.37831 4.97447C7.613 5.27168 6.96381 5.66925 6.31704 6.31628C5.66979 6.96307 5.27222 7.61228 4.97405 8.37737C4.68558 9.1175 4.48922 9.96331 4.43346 11.2016C4.37795 12.4428 4.3634 12.8397 4.3634 15.9999C4.3634 19.1602 4.37746 19.5556 4.4337 20.7968C4.49067 22.0356 4.68679 22.8811 4.97429 23.621C5.27174 24.3863 5.6693 25.0356 6.31631 25.6823C6.96284 26.3296 7.61203 26.7282 8.37686 27.0254C9.1172 27.3131 9.96299 27.5093 11.2015 27.566C12.4427 27.6225 12.839 27.6363 15.9989 27.6363C19.1593 27.6363 19.5547 27.6225 20.7959 27.566C22.0346 27.5093 22.8811 27.3131 23.6215 27.0254C24.3866 26.7282 25.0348 26.3296 25.6813 25.6823C26.3286 25.0356 26.7261 24.3863 27.0243 23.6213C27.3103 22.8811 27.5067 22.0353 27.5649 20.797C27.6206 19.5558 27.6352 19.1602 27.6352 15.9999C27.6352 12.8397 27.6206 12.4431 27.5649 11.2019C27.5067 9.96307 27.3103 9.1175 27.0243 8.37762C26.7261 7.61228 26.3286 6.96307 25.6813 6.31628C25.034 5.66901 24.3868 5.27143 23.6208 4.97447C22.879 4.68671 22.0329 4.49059 20.7942 4.43386C19.553 4.37737 19.1579 4.36356 15.9967 4.36356H16.0004ZM14.9565 6.46053C15.2663 6.46004 15.612 6.46053 16.0004 6.46053C19.1072 6.46053 19.4754 6.47168 20.7023 6.52743C21.8368 6.57931 22.4525 6.76889 22.8627 6.92816C23.4057 7.13907 23.7929 7.39119 24.1999 7.79846C24.6072 8.20574 24.8593 8.59362 25.0707 9.13665C25.2299 9.54634 25.4197 10.1621 25.4714 11.2966C25.5271 12.5233 25.5392 12.8918 25.5392 15.9973C25.5392 19.1027 25.5271 19.4712 25.4714 20.6979C25.4195 21.8324 25.2299 22.4482 25.0707 22.8579C24.8597 23.4009 24.6072 23.7876 24.1999 24.1946C23.7926 24.6019 23.406 24.854 22.8627 25.0649C22.453 25.2249 21.8368 25.414 20.7023 25.4659C19.4757 25.5216 19.1072 25.5337 16.0004 25.5337C12.8933 25.5337 12.5251 25.5216 11.2985 25.4659C10.164 25.4135 9.54822 25.2239 9.1378 25.0646C8.59479 24.8537 8.20692 24.6016 7.79966 24.1943C7.3924 23.7871 7.14029 23.4002 6.9289 22.8569C6.76963 22.4472 6.57982 21.8314 6.52819 20.6969C6.47243 19.4702 6.46128 19.1017 6.46128 15.9943C6.46128 12.8869 6.47243 12.5204 6.52819 11.2937C6.58006 10.1592 6.76963 9.54343 6.9289 9.13325C7.1398 8.59022 7.3924 8.20234 7.79966 7.79507C8.20692 7.3878 8.59479 7.13568 9.1378 6.92428C9.54797 6.76428 10.164 6.57519 11.2985 6.52307C12.3719 6.47459 12.7879 6.46004 14.9565 6.45762V6.46053ZM22.2116 8.39265C21.4407 8.39265 20.8153 9.01737 20.8153 9.78853C20.8153 10.5594 21.4407 11.1849 22.2116 11.1849C22.9825 11.1849 23.6079 10.5594 23.6079 9.78853C23.6079 9.01762 22.9825 8.39216 22.2116 8.39216V8.39265ZM16.0004 10.0242C12.7004 10.0242 10.0248 12.6998 10.0248 15.9999C10.0248 19.3 12.7004 21.9745 16.0004 21.9745C19.3004 21.9745 21.975 19.3 21.975 15.9999C21.975 12.6998 19.3002 10.0242 16.0001 10.0242H16.0004ZM16.0004 12.1211C18.1424 12.1211 19.8791 13.8576 19.8791 15.9999C19.8791 18.142 18.1424 19.8787 16.0004 19.8787C13.8581 19.8787 12.1217 18.142 12.1217 15.9999C12.1217 13.8576 13.8581 12.1211 16.0004 12.1211Z" fill="white"/>
  <defs>
    <radialGradient id="paint0_radial" cx="0" cy="0" r="1" gradientUnits="userSpaceOnUse" gradientTransform="translate(8.61525 34.182) rotate(-90) scale(31.2312 29.0545)">
      <stop stop-color="#FFDD55"/>
      <stop offset="0.1" stop-color="#FFDD55"/>
      <stop offset="0.5" stop-color="#FF543E"/>
      <stop offset="1" stop-color="#C837AB"/>
    </radialGradient>
    <radialGradient id="paint1_radial" cx="0" cy="0" r="1" gradientUnits="userSpaceOnUse" gradientTransform="translate(-5.03711 2.51251) rotate(78.678) scale(13.9606 57.5591)">
      <stop stop-color="#3771C8"/>
      <stop offset="0.128" stop-color="#3771C8"/>
      <stop offset="1" stop-color="#6600FF" stop-opacity="0"/>
    </radialGradient>
  </defs>
</svg>
