<svg xmlns="http://www.w3.org/2000/svg" fill="none" viewBox="0 0 32 32" id="vk-article">
  <path fill-rule="evenodd" clip-rule="evenodd" d="M11.093 0h9.814C29.867 0 32 2.133 32 11.093v9.814C32 29.867 29.867 32 20.907 32h-9.814C2.133 32 0 29.867 0 20.907v-9.814C0 2.133 2.133 0 11.093 0z" fill="#5181B8"></path>
  <path fill-rule="evenodd" clip-rule="evenodd" d="M26.206 11.024c.148-.494 0-.857-.706-.857h-2.333c-.594 0-.867.313-1.015.66 0 0-1.187 2.892-2.868 4.77-.544.544-.791.717-1.088.717-.148 0-.363-.173-.363-.667v-4.623c0-.593-.172-.857-.666-.857H13.5c-.37 0-.594.275-.594.536 0 .562.84.692.927 2.274v3.436c0 .753-.136.89-.432.89-.791 0-2.716-2.905-3.857-6.23-.223-.646-.448-.907-1.044-.907H6.167c-.667 0-.8.314-.8.66 0 .618.79 3.684 3.683 7.738 1.928 2.768 4.645 4.27 7.117 4.27 1.483 0 1.666-.334 1.666-.908v-2.093c0-.666.14-.8.61-.8.347 0 .94.173 2.324 1.508 1.582 1.582 1.843 2.292 2.733 2.292h2.333c.667 0 1-.333.808-.991-.21-.656-.966-1.607-1.968-2.734-.544-.643-1.36-1.335-1.607-1.681-.346-.445-.247-.643 0-1.039 0 0 2.843-4.004 3.14-5.364z" fill="#fff"></path>
</svg>
