<svg xmlns="http://www.w3.org/2000/svg" fill="none" viewBox="0 0 46 33" id="youtube-article">
  <path d="M44.899 5.055c-.521-1.98-2.085-3.544-4.065-4.09C37.264 0 22.93 0 22.93 0S8.6 0 5.003.964C3.023 1.485 1.485 3.05.938 5.055 0 8.651 0 16.156 0 16.156s0 7.505.964 11.101c.521 1.98 2.085 3.544 4.065 4.091 3.57.965 17.902.965 17.902.965s14.333 0 17.929-.965c1.98-.52 3.518-2.084 4.065-4.09.938-3.597.938-11.102.938-11.102s0-7.505-.964-11.1z" fill="red"></path>
  <path d="M18.24 22.984l11.988-6.828L18.24 9.33v13.655z" fill="#fff"></path>
</svg>
