<svg width="17" height="17" viewBox="0 0 17 17" fill="none"
  xmlns="http://www.w3.org/2000/svg">
  <path fill-rule="evenodd" clip-rule="evenodd" d="M8.20312 15.9111C10.0596 15.9111 11.8401 15.1736 13.1529 13.8609C14.4656 12.5481 15.2031 10.7676 15.2031 8.91113C15.2031 7.05462 14.4656 5.27414 13.1529 3.96139C11.8401 2.64863 10.0596 1.91113 8.20312 1.91113C6.34661 1.91113 4.56613 2.64863 3.25338 3.96139C1.94062 5.27414 1.20312 7.05462 1.20312 8.91113C1.20312 10.7676 1.94062 12.5481 3.25338 13.8609C4.56613 15.1736 6.34661 15.9111 8.20312 15.9111ZM8.20312 16.9111C10.3249 16.9111 12.3597 16.0683 13.86 14.568C15.3603 13.0677 16.2031 11.0329 16.2031 8.91113C16.2031 6.7894 15.3603 4.75457 13.86 3.25428C12.3597 1.75399 10.3249 0.911133 8.20312 0.911133C6.08139 0.911133 4.04656 1.75399 2.54627 3.25428C1.04598 4.75457 0.203125 6.7894 0.203125 8.91113C0.203125 11.0329 1.04598 13.0677 2.54627 14.568C4.04656 16.0683 6.08139 16.9111 8.20312 16.9111Z" fill="black" fill-opacity="0.3"/>
  <path d="M5.45312 6.94413H6.77313C6.77313 6.16313 7.23112 5.56013 8.13312 5.56013C8.81812 5.56013 9.44612 5.90313 9.44612 6.72813C9.44612 7.36313 9.07212 7.65513 8.48112 8.09913C7.80812 8.58813 7.27513 9.15913 7.31313 10.0861L7.32012 10.5491H8.62712V10.1941C8.62712 9.47613 8.90012 9.26713 9.63712 8.70813C10.2461 8.24513 10.8811 7.73113 10.8811 6.65213C10.8811 5.14113 9.60512 4.41113 8.20812 4.41113C6.88213 4.41113 5.42212 5.05813 5.45412 6.94413H5.45312ZM7.01512 12.4601C7.01512 12.9931 7.44012 13.3871 8.02512 13.3871C8.63412 13.3871 9.05313 12.9931 9.05313 12.4601C9.05313 11.9081 8.63312 11.5201 8.02412 11.5201C7.44012 11.5201 7.01512 11.9081 7.01512 12.4601Z" fill="black" fill-opacity="0.3"/>
</svg>
