<svg width="28" height="20" viewBox="0 0 28 20" fill="none"
  xmlns="http://www.w3.org/2000/svg">
  <path fill-rule="evenodd" clip-rule="evenodd" d="M13.9355 19.0137C13.7833 19.0137 13.6395 18.9444 13.5446 18.8255L3.60915 6.36993L4.3909 5.74634L13.9355 17.7119L23.48 5.74634L24.2618 6.36993L14.3263 18.8255C14.2315 18.9444 14.0876 19.0137 13.9355 19.0137Z" fill="black"/>
  <path d="M13.6716 3.98944C14.1516 3.98944 14.5716 4.08544 14.9316 4.27744C15.2996 4.46944 15.5836 4.73344 15.7836 5.06944C15.9836 5.39744 16.0836 5.76944 16.0836 6.18544C16.0836 6.67344 15.9716 7.14144 15.7476 7.58944C15.5316 8.03744 15.1956 8.52144 14.7396 9.04144C14.2836 9.56144 13.5916 10.2854 12.6636 11.2134H16.2756L16.1436 12.1374H11.4036V11.2614C12.4756 10.1494 13.2356 9.33744 13.6836 8.82544C14.1316 8.30544 14.4516 7.85344 14.6436 7.46944C14.8356 7.08544 14.9316 6.67344 14.9316 6.23344C14.9316 5.81744 14.8116 5.49344 14.5716 5.26144C14.3316 5.02144 14.0116 4.90144 13.6116 4.90144C13.2836 4.90144 12.9956 4.96944 12.7476 5.10544C12.4996 5.24144 12.2356 5.46544 11.9556 5.77744L11.2356 5.20144C11.5636 4.79344 11.9276 4.48944 12.3276 4.28944C12.7276 4.08944 13.1756 3.98944 13.6716 3.98944Z" fill="black"/>
</svg>
