<svg width="28" height="20" viewBox="0 0 28 20" fill="none"
  xmlns="http://www.w3.org/2000/svg">
  <path fill-rule="evenodd" clip-rule="evenodd" d="M13.9355 19.0137C13.7833 19.0137 13.6395 18.9444 13.5446 18.8255L3.60915 6.36993L4.3909 5.74634L13.9355 17.7119L23.48 5.74634L24.2618 6.36993L14.3263 18.8255C14.2315 18.9444 14.0876 19.0137 13.9355 19.0137Z" fill="black"/>
  <path d="M13.6356 3.98944C14.1316 3.98944 14.5556 4.08144 14.9076 4.26544C15.2676 4.44944 15.5396 4.69744 15.7236 5.00944C15.9156 5.32144 16.0116 5.66144 16.0116 6.02944C16.0116 6.51744 15.8676 6.92144 15.5796 7.24144C15.2996 7.55344 14.9236 7.76544 14.4516 7.87744C14.9876 7.92544 15.4236 8.11744 15.7596 8.45344C16.0956 8.78944 16.2636 9.24544 16.2636 9.82144C16.2636 10.2854 16.1516 10.7054 15.9276 11.0814C15.7036 11.4574 15.3836 11.7534 14.9676 11.9694C14.5516 12.1774 14.0716 12.2814 13.5276 12.2814C13.0396 12.2814 12.5916 12.1934 12.1836 12.0174C11.7756 11.8334 11.4196 11.5614 11.1156 11.2014L11.7756 10.5894C12.0396 10.8614 12.3076 11.0614 12.5796 11.1894C12.8596 11.3174 13.1636 11.3814 13.4916 11.3814C13.9956 11.3814 14.3916 11.2414 14.6796 10.9614C14.9676 10.6734 15.1116 10.2894 15.1116 9.80944C15.1116 9.28144 14.9756 8.90944 14.7036 8.69344C14.4316 8.47744 14.0356 8.36944 13.5156 8.36944H12.9156L13.0476 7.51744H13.4556C13.8716 7.51744 14.2156 7.39344 14.4876 7.14544C14.7676 6.89744 14.9076 6.54944 14.9076 6.10144C14.9076 5.72544 14.7876 5.42944 14.5476 5.21344C14.3076 4.98944 13.9836 4.87744 13.5756 4.87744C13.2636 4.87744 12.9756 4.93344 12.7116 5.04544C12.4556 5.15744 12.1916 5.34144 11.9196 5.59744L11.3436 4.93744C12.0236 4.30544 12.7876 3.98944 13.6356 3.98944Z" fill="black"/>
</svg>
