<svg width="28" height="20" viewBox="0 0 28 20" fill="none"
  xmlns="http://www.w3.org/2000/svg">
  <path fill-rule="evenodd" clip-rule="evenodd" d="M13.9355 19.0137C13.7833 19.0137 13.6395 18.9444 13.5446 18.8255L3.60915 6.3699L4.3909 5.74631L13.9355 17.7119L23.48 5.74631L24.2618 6.3699L14.3263 18.8255C14.2315 18.9444 14.0876 19.0137 13.9355 19.0137Z" fill="black"/>
  <path d="M15.9756 4.97344H12.8436V7.33744C13.2516 7.12944 13.6796 7.02544 14.1276 7.02544C14.8156 7.02544 15.3676 7.25344 15.7836 7.70944C16.1996 8.15744 16.4076 8.77744 16.4076 9.56944C16.4076 10.0974 16.2916 10.5694 16.0596 10.9854C15.8276 11.3934 15.4996 11.7134 15.0756 11.9454C14.6596 12.1694 14.1756 12.2814 13.6236 12.2814C13.1356 12.2814 12.6996 12.1974 12.3156 12.0294C11.9316 11.8534 11.5756 11.5974 11.2476 11.2614L11.8956 10.6254C12.1516 10.8814 12.4156 11.0734 12.6876 11.2014C12.9596 11.3214 13.2676 11.3814 13.6116 11.3814C14.1236 11.3814 14.5236 11.2214 14.8116 10.9014C15.1076 10.5814 15.2556 10.1294 15.2556 9.54544C15.2556 8.96144 15.1236 8.53744 14.8596 8.27344C14.5956 8.00944 14.2396 7.87744 13.7916 7.87744C13.5836 7.87744 13.3916 7.90144 13.2156 7.94944C13.0396 7.98944 12.8516 8.05744 12.6516 8.15344H11.7876V4.10944H16.1316L15.9756 4.97344Z" fill="black"/>
</svg>
