<svg width="28" height="20" viewBox="0 0 28 20" fill="none"
  xmlns="http://www.w3.org/2000/svg">
  <path d="M8 5.08V15.864H9.392V5.08H8Z" fill="black"/>
  <path d="M11.8281 15.832C12.5321 15.912 13.3641 15.96 14.3561 15.96C16.4521 15.96 18.1161 15.416 19.1241 14.408C20.1321 13.416 20.6761 11.976 20.6761 10.216C20.6761 8.472 20.1161 7.224 19.1561 6.344C18.2121 5.464 16.7881 5 14.7881 5C13.6841 5 12.6761 5.096 11.8281 5.224V15.832ZM13.2201 6.248C13.5881 6.168 14.1321 6.104 14.8521 6.104C17.7961 6.104 19.2361 7.72 19.2201 10.264C19.2201 13.176 17.6041 14.84 14.6281 14.84C14.0841 14.84 13.5721 14.824 13.2201 14.76V6.248Z" fill="black"/>
</svg>
