<svg width="28" height="20" viewBox="0 0 28 20" fill="none"
  xmlns="http://www.w3.org/2000/svg">
  <path fill-rule="evenodd" clip-rule="evenodd" d="M9.5 4V11.1423C9.5 13.5355 11.501 15.5 14 15.5C16.499 15.5 18.5 13.5355 18.5 11.1423V4H19.5V11.1423C19.5 14.1148 17.0239 16.5 14 16.5C10.9761 16.5 8.5 14.1148 8.5 11.1423V4H9.5Z" fill="black"/>
  <path d="M13.6716 4.85199C14.1516 4.85199 14.5716 4.94799 14.9316 5.13999C15.2996 5.33199 15.5836 5.59599 15.7836 5.93199C15.9836 6.25999 16.0836 6.63199 16.0836 7.04799C16.0836 7.53599 15.9716 8.00399 15.7476 8.45199C15.5316 8.89999 15.1956 9.38399 14.7396 9.90399C14.2836 10.424 13.5916 11.148 12.6636 12.076H16.2756L16.1436 13H11.4036V12.124C12.4756 11.012 13.2356 10.2 13.6836 9.68799C14.1316 9.16799 14.4516 8.71599 14.6436 8.33199C14.8356 7.94799 14.9316 7.53599 14.9316 7.09599C14.9316 6.67999 14.8116 6.35599 14.5716 6.12399C14.3316 5.88399 14.0116 5.76399 13.6116 5.76399C13.2836 5.76399 12.9956 5.83199 12.7476 5.96799C12.4996 6.10399 12.2356 6.32799 11.9556 6.63999L11.2356 6.06399C11.5636 5.65599 11.9276 5.35199 12.3276 5.15199C12.7276 4.95199 13.1756 4.85199 13.6716 4.85199Z" fill="black"/>
</svg>
