<svg width="28" height="20" viewBox="0 0 28 20" fill="none"
  xmlns="http://www.w3.org/2000/svg">
  <path fill-rule="evenodd" clip-rule="evenodd" d="M9.5 4V11.1423C9.5 13.5355 11.501 15.5 14 15.5C16.499 15.5 18.5 13.5355 18.5 11.1423V4H19.5V11.1423C19.5 14.1148 17.0239 16.5 14 16.5C10.9761 16.5 8.5 14.1148 8.5 11.1423V4H9.5Z" fill="black"/>
  <path d="M13.7 4.85199C14.196 4.85199 14.62 4.94399 14.972 5.12799C15.332 5.31199 15.604 5.55999 15.788 5.87199C15.98 6.18399 16.076 6.52399 16.076 6.89199C16.076 7.37999 15.932 7.78399 15.644 8.10399C15.364 8.41599 14.988 8.62799 14.516 8.73999C15.052 8.78799 15.488 8.97999 15.824 9.31599C16.16 9.65199 16.328 10.108 16.328 10.684C16.328 11.148 16.216 11.568 15.992 11.944C15.768 12.32 15.448 12.616 15.032 12.832C14.616 13.04 14.136 13.144 13.592 13.144C13.104 13.144 12.656 13.056 12.248 12.88C11.84 12.696 11.484 12.424 11.18 12.064L11.84 11.452C12.104 11.724 12.372 11.924 12.644 12.052C12.924 12.18 13.228 12.244 13.556 12.244C14.06 12.244 14.456 12.104 14.744 11.824C15.032 11.536 15.176 11.152 15.176 10.672C15.176 10.144 15.04 9.77199 14.768 9.55599C14.496 9.33999 14.1 9.23199 13.58 9.23199H12.98L13.112 8.37999H13.52C13.936 8.37999 14.28 8.25599 14.552 8.00799C14.832 7.75999 14.972 7.41199 14.972 6.96399C14.972 6.58799 14.852 6.29199 14.612 6.07599C14.372 5.85199 14.048 5.73999 13.64 5.73999C13.328 5.73999 13.04 5.79599 12.776 5.90799C12.52 6.01999 12.256 6.20399 11.984 6.45999L11.408 5.79999C12.088 5.16799 12.852 4.85199 13.7 4.85199Z" fill="black"/>
</svg>
