<svg width="28" height="20" viewBox="0 0 28 20" fill="none"
  xmlns="http://www.w3.org/2000/svg">
  <path fill-rule="evenodd" clip-rule="evenodd" d="M9.5 4V11.1423C9.5 13.5355 11.501 15.5 14 15.5C16.499 15.5 18.5 13.5355 18.5 11.1423V4H19.5V11.1423C19.5 14.1148 17.0239 16.5 14 16.5C10.9761 16.5 8.5 14.1148 8.5 11.1423V4H9.5Z" fill="black"/>
  <path d="M14.696 7.71999C15.104 7.71999 15.476 7.81599 15.812 8.00799C16.148 8.19999 16.416 8.48799 16.616 8.87199C16.816 9.25599 16.916 9.72399 16.916 10.276C16.916 10.844 16.8 11.348 16.568 11.788C16.344 12.22 16.036 12.556 15.644 12.796C15.26 13.028 14.832 13.144 14.36 13.144C13.424 13.144 12.74 12.8 12.308 12.112C11.876 11.416 11.66 10.456 11.66 9.23199C11.66 8.35999 11.78 7.59599 12.02 6.93999C12.268 6.27599 12.62 5.76399 13.076 5.40399C13.532 5.03599 14.072 4.85199 14.696 4.85199C15.304 4.85199 15.856 5.01599 16.352 5.34399L15.92 6.07599C15.544 5.84399 15.132 5.72799 14.684 5.72799C14.108 5.72799 13.652 6.00399 13.316 6.55599C12.98 7.10799 12.796 7.84799 12.764 8.77599C13.26 8.07199 13.904 7.71999 14.696 7.71999ZM14.36 12.268C14.824 12.268 15.18 12.092 15.428 11.74C15.676 11.388 15.8 10.912 15.8 10.312C15.8 9.16799 15.368 8.59599 14.504 8.59599C14.152 8.59599 13.828 8.69599 13.532 8.89599C13.236 9.08799 12.984 9.35599 12.776 9.69999C12.8 10.58 12.936 11.228 13.184 11.644C13.44 12.06 13.832 12.268 14.36 12.268Z" fill="black"/>
</svg>
