<svg width="28" height="20" viewBox="0 0 28 20" fill="none"
  xmlns="http://www.w3.org/2000/svg">
  <path fill-rule="evenodd" clip-rule="evenodd" d="M7.70184 9.35109C7.28447 9.72491 6.85546 10.4069 6.53099 11.6336L4.59749 11.1222C4.9793 9.67872 5.55599 8.58811 6.36751 7.86128C7.20214 7.11375 8.18586 6.83936 9.1858 6.85049C10.1563 6.86129 11.1567 7.13943 12.1084 7.4984C13.0482 7.85288 14.015 8.31611 14.9322 8.75555L14.9804 8.77866C15.93 9.23359 16.8261 9.66113 17.673 9.97585C18.5255 10.2927 19.2468 10.4629 19.8434 10.4557C20.4046 10.4489 20.8394 10.2877 21.2071 9.92202C21.6026 9.52884 22.0044 8.81489 22.2905 7.5437L24.2417 7.98286C23.9103 9.45508 23.3841 10.5779 22.6173 11.3403C21.8228 12.1303 20.8609 12.4435 19.8676 12.4555C18.9095 12.4672 17.9182 12.2006 16.9763 11.8506C16.0287 11.4984 15.0486 11.029 14.1163 10.5823L14.1106 10.5796C13.1623 10.1253 12.2612 9.69356 11.4026 9.36971C10.5376 9.04348 9.79206 8.85736 9.16354 8.85037C8.56446 8.8437 8.09611 8.99798 7.70184 9.35109Z" fill="black"/>
</svg>
