<svg width="28" height="20" viewBox="0 0 28 20" fill="none"
  xmlns="http://www.w3.org/2000/svg">
  <path fill-rule="evenodd" clip-rule="evenodd" d="M22 10.5L7 10.5V9.5L22 9.5V10.5Z" fill="black"/>
  <path fill-rule="evenodd" clip-rule="evenodd" d="M14.5 15C17.2614 15 19.5 12.7614 19.5 10C19.5 7.23858 17.2614 5 14.5 5C11.7386 5 9.5 7.23858 9.5 10C9.5 12.7614 11.7386 15 14.5 15ZM14.5 16C17.8137 16 20.5 13.3137 20.5 10C20.5 6.68629 17.8137 4 14.5 4C11.1863 4 8.5 6.68629 8.5 10C8.5 13.3137 11.1863 16 14.5 16Z" fill="black"/>
</svg>
