<svg width="12" height="10" viewBox="0 0 12 10" fill="none"
  xmlns="http://www.w3.org/2000/svg">
  <path d="M4.2231 9.28003C4.30956 9.4007 4.42354 9.49903 4.55559 9.56686C4.68763 9.63469 4.83395 9.67008 4.9824 9.67008C5.13085 9.67008 5.27716 9.63469 5.40921 9.56686C5.54125 9.49903 5.65523 9.4007 5.74169 9.28003L11.9276 0.703115C12.0393 0.547439 11.9276 0.330078 11.7367 0.330078H10.3591C10.0595 0.330078 9.7746 0.474005 9.59836 0.720738L4.98386 7.12405L2.89251 4.222C2.71627 3.9782 2.43429 3.83134 2.13175 3.83134H0.754155C0.56323 3.83134 0.451613 4.0487 0.56323 4.20437L4.2231 9.28003Z" fill="#4F4F4F"/>
</svg>
