<svg width="36" height="34" viewBox="0 0 36 34" fill="none" xmlns="http://www.w3.org/2000/svg">
  <path fill-rule="evenodd" clip-rule="evenodd" d="M16.2273 19.5077C16.797 19.4606 17.3757 19.4359 17.9618 19.4348C17.9746 19.4348 17.9873 19.4348 18 19.4348C18.5812 19.4348 19.1551 19.4581 19.7202 19.5034C25.6799 19.9815 30.6532 22.9155 32.7834 26.9209C33.9642 29.141 31.8589 31.2886 29.3444 31.2886H6.6556C4.14105 31.2886 2.0358 29.141 3.21653 26.9209C5.34049 22.9273 10.2909 19.9988 16.2273 19.5077ZM12.297 17.8648C9.77718 16.085 8.13173 13.1497 8.13173 9.83011C8.13173 4.40109 12.5328 0 17.9618 0C23.3909 0 27.792 4.40109 27.792 9.83011C27.792 13.1409 26.1553 16.0693 23.6468 17.8505C28.5867 19.0954 32.7184 21.9504 34.7934 25.852C35.8703 27.8769 35.4123 29.9684 34.1833 31.4126C33.0244 32.7746 31.2158 33.5651 29.3444 33.5651H6.6556C4.78421 33.5651 2.97557 32.7746 1.81661 31.4126C0.587617 29.9684 0.129639 27.8769 1.2066 25.852C3.27373 21.9652 7.38196 19.1171 12.297 17.8648ZM16.3657 17.2148C12.9605 16.4822 10.4082 13.4542 10.4082 9.83011C10.4082 5.65837 13.7901 2.2765 17.9618 2.2765C22.1336 2.2765 25.5154 5.65837 25.5154 9.83011C25.5154 13.4478 22.9723 16.4714 19.5763 17.2108C19.068 17.3215 18.5407 17.3809 18 17.3836C17.9873 17.3837 17.9746 17.3837 17.9618 17.3837C17.4142 17.3837 16.8802 17.3254 16.3657 17.2148Z" fill="currentColor"/>
</svg>
