<svg width="24" height="24" viewBox="0 0 24 24" fill="none"
  xmlns="http://www.w3.org/2000/svg">
  <path d="M20.706 14.259C20.6276 14.3095 19 15.9045 19 17.0239C19 18.2041 19.8095 18.9577 20.706 18.9988C21.4789 19.0336 22.4121 18.295 22.4121 17.0239C22.4121 15.8389 20.7845 14.3095 20.706 14.259Z" fill="black"/>
  <path fill-rule="evenodd" clip-rule="evenodd" d="M4.45107 2.69434L7.10787 4.22821L18.5029 10.8072L19.979 11.6594L15.3545 19.6692C14.5951 20.9845 12.9133 21.4352 11.598 20.6758L3.48996 15.9946C2.17466 15.2352 1.724 13.5534 2.48339 12.238L6.35786 5.52727L3.70107 3.99337L4.45107 2.69434ZM17.4576 11.9357L7.6569 6.27727L4.07358 12.4838C4.41253 12.16 4.87848 11.9508 5.4463 11.9501L17.4576 11.9357Z" fill="black"/>
</svg>
