<svg width="19" height="18" viewBox="0 0 19 18" fill="none"
  xmlns="http://www.w3.org/2000/svg">
  <path fill-rule="evenodd" clip-rule="evenodd" d="M17.7802 5.56573L12.5074 0.292893C12.1168 -0.0976309 11.4837 -0.0976312 11.0932 0.292893L0.470679 10.9154C0.080155 11.3059 0.0801547 11.9391 0.470679 12.3296L4.04009 15.899H0.709269C0.31755 15.899 0 16.2165 0 16.6083C0 17 0.31755 17.3175 0.709269 17.3175H17.7317C18.1234 17.3175 18.441 17 18.441 16.6083C18.441 16.2165 18.1234 15.899 17.7317 15.899H8.86115L17.7802 6.97994C18.1707 6.58942 18.1707 5.95625 17.7802 5.56573ZM12.2094 2.69298C12.0142 2.49772 11.6976 2.49772 11.5023 2.69298L5.50494 8.69038L9.51717 12.7026L15.5146 6.70521C15.7098 6.50995 15.7098 6.19337 15.5146 5.9981L12.2094 2.69298Z" fill="black"/>
</svg>
