<svg width="15" height="18" viewBox="0 0 15 18" fill="none"
  xmlns="http://www.w3.org/2000/svg">
  <path d="M8.12369 0.25C7.25932 0.25 6.54182 0.855625 6.32682 1.65625C6.10682 1.56562 5.87494 1.5 5.62369 1.5C4.59557 1.5 3.74869 2.34687 3.74869 3.375V10.0938L3.20182 9.54688C2.84815 9.19734 2.37094 9.00131 1.87369 9.00131C1.37644 9.00131 0.899234 9.19734 0.545566 9.54688C0.196026 9.90054 0 10.3777 0 10.875C0 11.3723 0.196026 11.8495 0.545566 12.2031L4.78369 16.4412C5.51869 17.1737 6.53432 17.75 7.73307 17.75H10.6237C13.0331 17.75 14.9987 15.7844 14.9987 13.375V5.875C14.9987 4.84688 14.1518 4 13.1237 4C12.9101 4.00267 12.6986 4.04243 12.4987 4.1175V3.375C12.4987 2.34687 11.6518 1.5 10.6237 1.5C10.3724 1.5 10.1406 1.56562 9.92057 1.65625C9.70557 0.855625 8.98807 0.25 8.12369 0.25ZM8.12369 1.5C8.47744 1.5 8.74869 1.77125 8.74869 2.125V8.375H9.99869V3.375C9.99869 3.02125 10.2699 2.75 10.6237 2.75C10.9774 2.75 11.2487 3.02125 11.2487 3.375V8.375H12.4987V5.875C12.4987 5.52125 12.7699 5.25 13.1237 5.25C13.4774 5.25 13.7487 5.52125 13.7487 5.875V13.375C13.7487 15.1081 12.3568 16.5 10.6237 16.5H7.73307C6.93744 16.5 6.25369 16.1119 5.68244 15.5431L1.42432 11.3244C1.36509 11.2655 1.3181 11.1955 1.28603 11.1183C1.25396 11.0412 1.23745 10.9585 1.23745 10.875C1.23745 10.7915 1.25396 10.7088 1.28603 10.6317C1.3181 10.5545 1.36509 10.4845 1.42432 10.4256C1.48321 10.3664 1.55323 10.3194 1.63035 10.2873C1.70747 10.2553 1.79017 10.2388 1.87369 10.2388C1.95721 10.2388 2.03991 10.2553 2.11703 10.2873C2.19415 10.3194 2.26417 10.3664 2.32307 10.4256L3.92432 12.0469L4.99869 13.1213V3.375C4.99869 3.02125 5.26994 2.75 5.62369 2.75C5.97744 2.75 6.24869 3.02125 6.24869 3.375V8.375H7.49869V2.125C7.49869 1.77125 7.76994 1.5 8.12369 1.5Z" fill="black"/>
</svg>
