<svg width="24" height="24" viewBox="0 0 24 24" fill="none"
  xmlns="http://www.w3.org/2000/svg">
  <path d="M7 3H14.0933C15.5679 3 16.8646 3.69054 17.6781 4.81586C18.2375 5.58312 18.568 6.50383 18.568 7.50128C18.568 8.49872 18.2375 9.41944 17.6781 10.1611C16.8646 11.2864 15.5679 12.0026 14.0933 12.0026H8.83054V21.7979H7V3ZM8.83054 10.1611H14.1696C15.5933 10.1355 16.7374 8.95908 16.7374 7.50128C16.7374 6.06905 15.5933 4.86701 14.1696 4.81586H8.83054V10.1611Z" fill="black"/>
  <path fill-rule="evenodd" clip-rule="evenodd" d="M15.3889 16.6691C15.1937 16.4739 14.8771 16.4739 14.6818 16.6691C14.4866 16.8644 14.4866 17.181 14.6818 17.3762L15.9698 18.6642L11.8231 18.6642C11.547 18.6642 11.3231 18.888 11.3231 19.1642C11.3231 19.4403 11.547 19.6642 11.8231 19.6642L15.9697 19.6642L14.6818 20.9521C14.4866 21.1474 14.4866 21.464 14.6818 21.6592C14.8771 21.8545 15.1937 21.8545 15.3889 21.6592L17.5304 19.5177C17.7257 19.3225 17.7257 19.0059 17.5304 18.8106L15.3889 16.6691Z" fill="black"/>
</svg>
