<svg width="24" height="24" viewBox="0 0 24 24" fill="none"
  xmlns="http://www.w3.org/2000/svg">
  <path d="M7 3H14.0933C15.5679 3 16.8646 3.69054 17.6781 4.81586C18.2375 5.58312 18.568 6.50383 18.568 7.50128C18.568 8.49872 18.2375 9.41944 17.6781 10.1611C16.8646 11.2864 15.5679 12.0026 14.0933 12.0026H8.83054V21.7979H7V3ZM8.83054 10.1611H14.1696C15.5933 10.1355 16.7374 8.95908 16.7374 7.50128C16.7374 6.06905 15.5933 4.86701 14.1696 4.81586H8.83054V10.1611Z" fill="black"/>
  <path fill-rule="evenodd" clip-rule="evenodd" d="M13.3643 16.7714C13.0882 16.7714 12.8643 16.9952 12.8643 17.2714C12.8643 17.5475 13.0882 17.7714 13.3643 17.7714H15.1857L12.2536 20.7035C12.0584 20.8987 12.0584 21.2153 12.2536 21.4106C12.4489 21.6058 12.7655 21.6058 12.9607 21.4106L15.8928 18.4785V20.2999C15.8928 20.576 16.1167 20.7999 16.3928 20.7999C16.669 20.7999 16.8928 20.576 16.8928 20.2999V17.2714C16.8928 16.9952 16.669 16.7714 16.3928 16.7714H13.3643Z" fill="black"/>
</svg>
