<svg width="24" height="24" viewBox="0 0 24 24" fill="none"
  xmlns="http://www.w3.org/2000/svg">
  <path d="M7 3H14.0933C15.5679 3 16.8646 3.69054 17.6781 4.81586C18.2375 5.58312 18.568 6.50383 18.568 7.50128C18.568 8.49872 18.2375 9.41944 17.6781 10.1611C16.8646 11.2864 15.5679 12.0026 14.0933 12.0026H8.83054V21.7979H7V3ZM8.83054 10.1611H14.1696C15.5933 10.1355 16.7374 8.95908 16.7374 7.50128C16.7374 6.06905 15.5933 4.86701 14.1696 4.81586H8.83054V10.1611Z" fill="black"/>
  <path fill-rule="evenodd" clip-rule="evenodd" d="M12.005 17.2753C11.8097 17.4705 11.8097 17.7871 12.005 17.9824C12.2002 18.1776 12.5168 18.1776 12.7121 17.9824L14 16.6944L14 20.8411C14 21.1172 14.2239 21.3411 14.5 21.3411C14.7761 21.3411 15 21.1172 15 20.8411L15 16.6945L16.2879 17.9824C16.4832 18.1776 16.7998 18.1776 16.995 17.9824C17.1903 17.7871 17.1903 17.4705 16.995 17.2753L14.8535 15.1338C14.6583 14.9385 14.3417 14.9385 14.1464 15.1338L12.005 17.2753Z" fill="black"/>
</svg>
