<svg width="24" height="24" viewBox="0 0 24 24" fill="none"
  xmlns="http://www.w3.org/2000/svg">
  <path fill-rule="evenodd" clip-rule="evenodd" d="M17.2803 3.09467C16.9874 2.80178 16.5126 2.80178 16.2197 3.09467L14.2509 5.06342L8.34467 10.9697C8.20402 11.1103 8.125 11.3011 8.125 11.5V14.125C8.125 14.5392 8.46079 14.875 8.875 14.875H11.5C11.6989 14.875 11.8897 14.796 12.0303 14.6553L17.9359 8.7498C17.9361 8.74956 17.9363 8.74932 17.9366 8.74908C17.9368 8.74884 17.9371 8.7486 17.9373 8.74836L19.9053 6.78033C20.1982 6.48744 20.1982 6.01256 19.9053 5.71967L17.2803 3.09467ZM17.4062 7.15809L18.3143 6.25L16.75 4.68566L15.8419 5.59375L17.4062 7.15809ZM14.7812 6.65441L9.625 11.8107V13.375H11.1893L16.3456 8.21875L14.7812 6.65441Z" fill="black"/>
  <path fill-rule="evenodd" clip-rule="evenodd" d="M5.03125 5.03125H12.1562C12.5705 5.03125 12.9062 4.69546 12.9062 4.28125C12.9062 3.86704 12.5705 3.53125 12.1562 3.53125H4.9375C4.56454 3.53125 4.20685 3.67941 3.94313 3.94313C3.67941 4.20685 3.53125 4.56454 3.53125 4.9375V18.0625C3.53125 18.4355 3.67941 18.7931 3.94313 19.0569C4.20686 19.3206 4.56454 19.4688 4.9375 19.4688H18.0625C18.4355 19.4688 18.7931 19.3206 19.0569 19.0569C19.3206 18.7931 19.4688 18.4355 19.4688 18.0625V10.8438C19.4688 10.4295 19.133 10.0938 18.7188 10.0938C18.3045 10.0938 17.9688 10.4295 17.9688 10.8438V17.9688H5.03125V5.03125Z" fill="black"/>
</svg>
