<svg width="22" height="21" viewBox="0 0 22 21" fill="none"
  xmlns="http://www.w3.org/2000/svg">
  <path d="M20.344 9.5884H5.49678L11.9833 3.10188C12.5017 2.58349 12.5017 1.73279 11.9833 1.2144C11.8603 1.09118 11.7143 0.99342 11.5535 0.926718C11.3927 0.860017 11.2203 0.825684 11.0462 0.825684C10.8721 0.825684 10.6998 0.860017 10.539 0.926718C10.3782 0.99342 10.2321 1.09118 10.1091 1.2144L1.34966 9.97388C1.22643 10.0968 1.12867 10.2429 1.06197 10.4037C0.995271 10.5645 0.960938 10.7369 0.960938 10.911C0.960938 11.085 0.995271 11.2574 1.06197 11.4182C1.12867 11.579 1.22643 11.7251 1.34966 11.8481L10.1091 20.6075C10.2322 20.7306 10.3783 20.8282 10.5391 20.8948C10.6999 20.9614 10.8722 20.9957 11.0462 20.9957C11.2203 20.9957 11.3926 20.9614 11.5534 20.8948C11.7142 20.8282 11.8603 20.7306 11.9833 20.6075C12.1064 20.4845 12.204 20.3384 12.2706 20.1776C12.3372 20.0168 12.3715 19.8445 12.3715 19.6704C12.3715 19.4964 12.3372 19.3241 12.2706 19.1633C12.204 19.0025 12.1064 18.8564 11.9833 18.7333L5.49678 12.2468H20.344C21.0751 12.2468 21.6732 11.6487 21.6732 10.9176C21.6732 10.1865 21.0751 9.5884 20.344 9.5884Z" fill="#B1B1B1"/>
</svg>
