<svg width="33" height="17" viewBox="0 0 33 17" fill="none"
  xmlns="http://www.w3.org/2000/svg">
  <path d="M3.26696 1.06238L3.04456 0.651792H4.99486C7.56105 5.17684 11.9834 7.86278 16.7993 7.86278C21.6067 7.86278 25.9863 5.17684 28.5953 0.651792H30.5541L30.3317 1.06238C27.4576 6.43427 22.3936 9.61635 16.7993 9.61635C11.205 9.61635 6.14965 6.3915 3.26696 1.06238Z" fill="black"/>
  <rect width="1.63431" height="4.54714" transform="matrix(-0.642788 -0.766044 -0.766044 0.642788 5.3114 7.25586)" fill="black"/>
  <rect x="28.2872" y="7.25586" width="1.63431" height="4.54714" transform="rotate(-50 28.2872 7.25586)" fill="black"/>
  <rect x="22.8817" y="10.8694" width="1.63431" height="4.54714" transform="rotate(-25 22.8817 10.8694)" fill="black"/>
  <rect x="15.9823" y="11.6865" width="1.63431" height="4.54713" fill="black"/>
  <rect width="1.63431" height="4.54714" transform="matrix(-0.906308 -0.422618 -0.422618 0.906308 10.7172 10.8694)" fill="black"/>
</svg>
