<svg width="29" height="18" viewBox="0 0 29 18" fill="none"
  xmlns="http://www.w3.org/2000/svg">
  <path d="M27.8179 8.55836C24.9352 3.22924 19.8798 0.00439453 14.2855 0.00439453C8.69125 0.00439453 3.6273 3.22924 0.770273 8.55836L0.530762 8.96039L0.753165 9.37099C3.63585 14.7001 8.69125 17.9249 14.2855 17.9249C19.8798 17.9249 24.9438 14.7429 27.8179 9.37099L28.0403 8.96039L27.8179 8.55836ZM14.2855 16.1714C9.46966 16.1714 5.04726 13.4854 2.48107 8.96039C5.04726 4.43535 9.46966 1.7494 14.2855 1.7494C19.1014 1.7494 23.4725 4.4439 26.0815 8.96039C23.4725 13.4854 19.0929 16.1714 14.2855 16.1714Z" fill="black"/>
  <path d="M14.5335 14.8537C17.7744 14.8537 20.4016 12.2265 20.4016 8.9857C20.4016 5.74488 17.7744 3.11768 14.5335 3.11768C11.2927 3.11768 8.66553 5.74488 8.66553 8.9857C8.66553 12.2265 11.2927 14.8537 14.5335 14.8537Z" fill="black"/>
</svg>
