<svg width="28" height="20" viewBox="0 0 28 20" fill="none"
  xmlns="http://www.w3.org/2000/svg">
  <path fill-rule="evenodd" clip-rule="evenodd" d="M13.9355 19.0137C13.7833 19.0137 13.6395 18.9444 13.5446 18.8255L3.60915 6.3699L4.3909 5.74631L13.9355 17.7119L23.48 5.74631L24.2618 6.3699L14.3263 18.8255C14.2315 18.9444 14.0876 19.0137 13.9355 19.0137Z" fill="black"/>
  <path d="M14.6316 6.85744C15.0396 6.85744 15.4116 6.95344 15.7476 7.14544C16.0836 7.33744 16.3516 7.62544 16.5516 8.00944C16.7516 8.39344 16.8516 8.86144 16.8516 9.41344C16.8516 9.98144 16.7356 10.4854 16.5036 10.9254C16.2796 11.3574 15.9716 11.6934 15.5796 11.9334C15.1956 12.1654 14.7676 12.2814 14.2956 12.2814C13.3596 12.2814 12.6756 11.9374 12.2436 11.2494C11.8116 10.5534 11.5956 9.59344 11.5956 8.36944C11.5956 7.49744 11.7156 6.73344 11.9556 6.07744C12.2036 5.41344 12.5556 4.90144 13.0116 4.54144C13.4676 4.17344 14.0076 3.98944 14.6316 3.98944C15.2396 3.98944 15.7916 4.15344 16.2876 4.48144L15.8556 5.21344C15.4796 4.98144 15.0676 4.86544 14.6196 4.86544C14.0436 4.86544 13.5876 5.14144 13.2516 5.69344C12.9156 6.24544 12.7316 6.98544 12.6996 7.91344C13.1956 7.20944 13.8396 6.85744 14.6316 6.85744ZM14.2956 11.4054C14.7596 11.4054 15.1156 11.2294 15.3636 10.8774C15.6116 10.5254 15.7356 10.0494 15.7356 9.44944C15.7356 8.30544 15.3036 7.73344 14.4396 7.73344C14.0876 7.73344 13.7636 7.83344 13.4676 8.03344C13.1716 8.22544 12.9196 8.49344 12.7116 8.83744C12.7356 9.71744 12.8716 10.3654 13.1196 10.7814C13.3756 11.1974 13.7676 11.4054 14.2956 11.4054Z" fill="black"/>
</svg>
