<svg width="28" height="20" viewBox="0 0 28 20" fill="none"
  xmlns="http://www.w3.org/2000/svg">
  <path fill-rule="evenodd" clip-rule="evenodd" d="M9.5 4V11.1423C9.5 13.5355 11.501 15.5 14 15.5C16.499 15.5 18.5 13.5355 18.5 11.1423V4H19.5V11.1423C19.5 14.1148 17.0239 16.5 14 16.5C10.9761 16.5 8.5 14.1148 8.5 11.1423V4H9.5Z" fill="black"/>
  <path d="M16.04 5.83599H12.908V8.19999C13.316 7.99198 13.744 7.88798 14.192 7.88798C14.88 7.88798 15.432 8.11598 15.848 8.57198C16.264 9.01998 16.472 9.63999 16.472 10.432C16.472 10.96 16.356 11.432 16.124 11.848C15.892 12.256 15.564 12.576 15.14 12.808C14.724 13.032 14.24 13.144 13.688 13.144C13.2 13.144 12.764 13.06 12.38 12.892C11.996 12.716 11.64 12.46 11.312 12.124L11.96 11.488C12.216 11.744 12.48 11.936 12.752 12.064C13.024 12.184 13.332 12.244 13.676 12.244C14.188 12.244 14.588 12.084 14.876 11.764C15.172 11.444 15.32 10.992 15.32 10.408C15.32 9.82399 15.188 9.39999 14.924 9.13598C14.66 8.87198 14.304 8.73998 13.856 8.73998C13.648 8.73998 13.456 8.76398 13.28 8.81199C13.104 8.85198 12.916 8.91999 12.716 9.01599H11.852V4.97198H16.196L16.04 5.83599Z" fill="black"/>
</svg>
