<svg width="18" height="18" viewBox="0 0 18 18" fill="none"
  xmlns="http://www.w3.org/2000/svg">
  <path d="M8.90238 0.224121C4.11968 0.224121 0.241699 4.1021 0.241699 8.88481C0.241699 13.6675 4.11968 17.5455 8.90238 17.5455C13.6851 17.5455 17.5631 13.6675 17.5631 8.88481C17.5631 4.1021 13.6851 0.224121 8.90238 0.224121ZM12.6141 9.34877C12.6141 9.43383 12.5445 9.50343 12.4595 9.50343H9.521V12.4419C9.521 12.5269 9.45141 12.5965 9.36635 12.5965H8.43842C8.35336 12.5965 8.28376 12.5269 8.28376 12.4419V9.50343H5.34532C5.26026 9.50343 5.19066 9.43383 5.19066 9.34877V8.42084C5.19066 8.33578 5.26026 8.26619 5.34532 8.26619H8.28376V5.32774C8.28376 5.24268 8.35336 5.17308 8.43842 5.17308H9.36635C9.45141 5.17308 9.521 5.24268 9.521 5.32774V8.26619H12.4595C12.5445 8.26619 12.6141 8.33578 12.6141 8.42084V9.34877Z" fill="#C4C4C4"/>
</svg>
