<svg width="12" height="11" viewBox="0 0 12 11" fill="none"
  xmlns="http://www.w3.org/2000/svg">
  <path d="M6.84884 0.190063C5.49847 0.190063 4.2034 0.726497 3.24855 1.68135C2.29369 2.63621 1.75725 3.93128 1.75725 5.28165H0.0600586L2.26076 7.48235L2.30036 7.56155L4.58591 5.28165H2.88872C2.88872 4.23136 3.30594 3.22409 4.04861 2.48142C4.79128 1.73875 5.79855 1.32153 6.84884 1.32153C7.89913 1.32153 8.9064 1.73875 9.64907 2.48142C10.3917 3.22409 10.809 4.23136 10.809 5.28165C10.809 6.33194 10.3917 7.33921 9.64907 8.08188C8.9064 8.82455 7.89913 9.24177 6.84884 9.24177C5.75698 9.24177 4.76695 8.79485 4.05413 8.07637L3.25079 8.87971C3.72118 9.35527 4.28165 9.73229 4.89944 9.98873C5.51723 10.2452 6.17995 10.3759 6.84884 10.3732C8.19921 10.3732 9.49428 9.8368 10.4491 8.88195C11.404 7.92709 11.9404 6.63202 11.9404 5.28165C11.9404 3.93128 11.404 2.63621 10.4491 1.68135C9.49428 0.726497 8.19921 0.190063 6.84884 0.190063Z" fill="white"/>
</svg>
