<svg width="225" height="32" viewBox="0 0 225 32" fill="none"
  xmlns="http://www.w3.org/2000/svg">
  <path fill-rule="evenodd" clip-rule="evenodd" d="M7.24772 24.8002C5.60572 25.7852 4.20647 26.3818 3.21429 26.749C2.03041 27.1863 0 27.8217 0 27.8217L0.277609 28.8469C0.785522 28.704 1.43162 28.5123 2.17606 28.2666C2.57691 28.1338 3.30143 27.8944 4.11808 27.5748C4.93472 27.2553 6.02275 26.7866 7.28755 26.1148C8.16769 26.3818 9.38021 26.6813 10.8454 26.8379C12.9045 27.0585 14.4768 26.8906 15.5212 26.774C16.9777 26.6111 18.9783 26.2564 21.2788 25.4318L20.6775 24.5057C18.921 25.1235 17.3773 25.4268 16.2109 25.5847C15.0643 25.7401 13.1124 25.992 10.6126 25.6273C9.21215 25.4218 8.06561 25.0859 7.24772 24.8002Z" fill="#C83F51"/>
  <path fill-rule="evenodd" clip-rule="evenodd" d="M6.70124 25.725C6.4921 25.616 6.19831 25.4493 5.87215 25.21C5.15136 24.6824 4.36833 24.1084 4.09321 23.1083C3.90647 22.4265 3.95253 21.5405 4.44177 20.7936C4.90363 20.0893 5.55719 19.8173 5.78999 19.7246C5.96302 19.6557 7.03238 19.2496 8.15278 19.781C8.34324 19.8712 8.80385 20.0968 9.1686 20.5968C9.82466 21.4979 9.64415 22.5732 9.56946 23.0093C9.34538 24.3352 8.48765 25.1623 8.2088 25.4305C8.05817 25.5747 7.92247 25.6862 7.82413 25.7626C7.53158 25.5621 7.23903 25.3616 6.94773 25.1611C7.52038 24.7676 7.84529 24.3239 8.01709 24.047C8.20506 23.7412 8.77522 22.8201 8.50259 21.7849C8.44532 21.5681 8.33578 21.1533 7.96231 20.8512C7.43697 20.4251 6.69253 20.464 6.1759 20.6996C5.64931 20.9377 5.38415 21.3663 5.28705 21.5468C5.19244 21.7511 5.02314 22.1909 5.13144 22.706C5.22854 23.1672 5.49619 23.4517 5.83231 23.7988C6.09996 24.0758 6.55683 24.4781 7.24899 24.8014L7.62619 24.938L6.70124 25.725Z" fill="#C83F51"/>
  <path fill-rule="evenodd" clip-rule="evenodd" d="M34.3974 14.4298C34.873 13.8821 35.3336 13.3018 35.778 12.689C30.9653 12.6439 24.8603 6.83016 23.4076 5.3739C23.2793 5.51802 23.1499 5.6634 23.0266 5.81379C22.8324 6.05065 22.6494 6.29127 22.4727 6.53565C23.4312 7.61217 29.6731 14.342 34.3974 14.4298Z" fill="#C83F51"/>
  <path fill-rule="evenodd" clip-rule="evenodd" d="M45.6921 14.0888C46.8213 13.8595 49.4181 13.184 50.5846 11.6776C50.5061 11.3969 50.4178 11.1199 50.3294 10.8367C48.9015 11.8869 46.4565 12.5173 46.1776 12.5887C46.0283 13.105 45.8677 13.6051 45.6921 14.0888Z" fill="#C83F51"/>
  <path fill-rule="evenodd" clip-rule="evenodd" d="M47.0168 9.94565C46.9857 9.95192 46.8612 9.9657 46.8189 9.96445C46.7193 10.487 46.611 10.9771 46.489 11.4746C47.3791 11.2127 49.0871 10.6337 49.9697 9.86294C49.8477 9.56843 49.717 9.28019 49.5788 8.99194C48.6165 9.62482 47.1986 9.91056 47.0168 9.94565Z" fill="#C83F51"/>
  <path fill-rule="evenodd" clip-rule="evenodd" d="M19.6094 17.9425C22.3083 21.1219 24.0213 21.9516 24.0213 21.9516C24.0773 21.9791 24.1246 22.0004 24.1532 22.0142C24.7309 21.7523 25.3608 21.4428 26.0256 21.0843C23.2395 19.9301 20.6327 17.351 19.394 15.9987C19.394 16.609 19.4326 17.2206 19.5023 17.8247C19.5148 17.8372 19.5285 17.851 19.5434 17.8673C19.5783 17.9074 19.6032 17.9362 19.6094 17.9425Z" fill="#C83F51"/>
  <path fill-rule="evenodd" clip-rule="evenodd" d="M31.1145 29.2417C31.0747 29.2241 30.7896 29.095 30.7361 29.065C29.7626 29.461 28.758 29.8094 27.7446 30.0939C30.0601 31.3433 32.652 32 35.2799 32C38.8279 32 42.275 30.8057 45.0735 28.6151C37.0328 31.4925 31.3847 29.3494 31.1145 29.2417Z" fill="#C83F51"/>
  <path fill-rule="evenodd" clip-rule="evenodd" d="M35.4741 26.8755C35.3832 26.8467 35.2724 26.8141 35.2251 26.7915C34.2192 27.4094 33.1685 27.9821 32.0967 28.4746C34.2391 29.0311 39.7266 30.1916 46.3158 27.1951C46.5946 27.0485 46.8946 26.8893 46.993 26.8304C47.1498 26.6625 47.4025 26.3654 47.5507 26.1812C47.908 25.7413 48.2428 25.2801 48.5516 24.8052C42.4691 28.7842 35.799 26.957 35.4741 26.8755Z" fill="#C83F51"/>
  <path fill-rule="evenodd" clip-rule="evenodd" d="M47.9689 6.34139C47.7722 6.07696 47.5631 5.8188 47.3477 5.56439C47.3278 5.94913 47.3004 6.32385 47.2705 6.69731C47.517 6.60958 47.7523 6.49053 47.9689 6.34139Z" fill="#C83F51"/>
  <path fill-rule="evenodd" clip-rule="evenodd" d="M40.0801 2.86113C40.217 2.21195 40.3328 1.54147 40.4274 0.85345C38.7829 0.29075 37.05 0 35.3097 0C35.2088 0 35.103 0.00250646 35.0034 0.00375969C36.3031 1.25574 38.5999 3.11177 40.0801 2.86113Z" fill="#C83F51"/>
  <path fill-rule="evenodd" clip-rule="evenodd" d="M46.9968 8.92675C47.5197 8.8102 48.528 8.51819 49.1057 8.08583C48.9277 7.76751 48.7384 7.4542 48.538 7.14716C48.116 7.43415 47.6454 7.64594 47.1512 7.77127C47.1064 8.16603 47.0553 8.55078 46.9968 8.92675Z" fill="#C83F51"/>
  <path fill-rule="evenodd" clip-rule="evenodd" d="M19.9143 20.0442C20.1932 21.1332 20.5903 22.196 21.092 23.2023C21.453 23.0895 22.0667 22.884 22.8609 22.5669C21.687 21.9779 20.6525 20.9377 19.9143 20.0442Z" fill="#C83F51"/>
  <path fill-rule="evenodd" clip-rule="evenodd" d="M39.0258 23.9542C38.1817 24.7087 37.2854 25.4105 36.3542 26.0496C38.6199 26.4344 42.8849 26.779 47.1511 24.6022C48.0437 24.1472 48.8255 23.6372 49.5065 23.1183C49.7081 22.6847 50.048 21.9415 50.2098 21.4941C49.5675 21.9603 48.635 22.5544 47.4275 23.0607C47.074 23.2086 45.3498 23.9129 42.9198 24.1121C41.9475 24.1936 40.6043 24.2124 39.0258 23.9542Z" fill="#C83F51"/>
  <path fill-rule="evenodd" clip-rule="evenodd" d="M22.835 25.952C23.2495 26.4771 23.7051 26.9821 24.1832 27.4471C26.6754 26.744 43.7216 21.2549 44.4412 2.91633C44.0851 2.66443 43.7229 2.42506 43.3544 2.20575C42.793 8.56214 40.5484 13.2843 37.7001 16.7595C32.4803 23.1309 25.2675 25.3567 22.835 25.952Z" fill="#C83F51"/>
  <path fill-rule="evenodd" clip-rule="evenodd" d="M25.0408 28.2353L25.169 28.3481C25.6059 28.7103 26.0653 29.0537 26.5396 29.3657C30.0016 28.5461 33.2869 27.0635 36.1949 25.0057C42.7717 20.3186 46.1951 13.4334 46.3818 4.54171C46.0681 4.23592 45.7445 3.9364 45.4009 3.65192C45.0075 10.0484 42.687 14.9009 39.7105 18.5365C34.5928 24.7739 27.5505 27.4408 25.0408 28.2353Z" fill="#C83F51"/>
  <path fill-rule="evenodd" clip-rule="evenodd" d="M45.2715 15.1754C44.9839 15.8659 44.6739 16.5264 44.3416 17.158C45.6051 16.8986 49.4966 15.9374 51.0216 13.7304C50.9805 13.4347 50.9282 13.1402 50.8697 12.8456C48.929 14.6541 45.457 15.1541 45.2902 15.1767L45.2715 15.1754Z" fill="#C83F51"/>
  <path fill-rule="evenodd" clip-rule="evenodd" d="M43.7798 18.1656C43.4325 18.7571 43.0653 19.3211 42.6843 19.86C44.2168 19.9088 48.4793 19.7585 51.0412 16.4737C51.0811 16.4236 51.0923 16.3973 51.1695 16.3133C51.1782 15.9148 51.1695 15.5163 51.1508 15.1177C50.4698 15.7243 49.144 16.7908 47.4448 17.4325C46.6879 17.7182 45.9658 17.8799 45.8538 17.9037C45.0471 18.0816 44.3375 18.1455 43.7798 18.1656Z" fill="#C83F51"/>
  <path fill-rule="evenodd" clip-rule="evenodd" d="M41.9885 20.8149C41.9885 20.8149 41.9798 20.8149 41.9748 20.8149C41.8715 20.9477 41.7682 21.0843 41.6624 21.2134C41.1258 21.8613 40.5519 22.4879 39.9531 23.0782C41.8615 23.206 47.6901 23.2587 50.6205 19.6807C50.6205 19.6807 50.7488 19.5391 50.7811 19.5052C50.8969 18.9739 50.9903 18.4337 51.0513 17.8923C47.5021 21.4565 42.2275 20.85 41.9885 20.8149Z" fill="#C83F51"/>
  <path fill-rule="evenodd" clip-rule="evenodd" d="M21.5686 24.0959C21.7641 24.4318 21.9744 24.7551 22.1935 25.0759C24.8352 24.4969 41.0299 20.2009 42.3993 1.68814C42.0656 1.5202 41.7208 1.35227 41.376 1.21442C40.5543 6.87777 38.3048 11.2453 35.581 14.5714C30.4347 20.8601 23.6003 23.4392 21.5686 24.0959Z" fill="#C83F51"/>
  <path fill-rule="evenodd" clip-rule="evenodd" d="M39.2599 5.19966C39.3072 5.20844 39.3545 5.2147 39.3545 5.2147C39.4006 5.22097 39.4404 5.22473 39.4728 5.22723C39.6085 4.78735 39.733 4.33869 39.8475 3.88252C37.3528 3.91636 34.2132 0.661716 33.6804 0.0889893C32.992 0.157917 32.306 0.276974 31.6338 0.433628C32.9994 1.75453 34.2169 2.70699 35.1207 3.35491C35.1207 3.35491 36.5735 4.39509 37.7337 4.80364C38.264 4.99163 39.2027 5.18964 39.2599 5.19966Z" fill="#C83F51"/>
  <path fill-rule="evenodd" clip-rule="evenodd" d="M28.9785 1.3134C29.9981 2.49895 33.8883 6.66469 38.716 7.36525C38.8741 6.97299 39.0235 6.57195 39.1654 6.16089C35.8353 5.94534 31.5044 1.73072 30.5247 0.735657C30.0018 0.901083 29.4814 1.09533 28.9785 1.3134Z" fill="#C83F51"/>
  <path fill-rule="evenodd" clip-rule="evenodd" d="M37.7522 9.48069C37.919 9.14482 38.1506 8.67612 38.3099 8.31895C32.8722 7.40033 28.7641 2.64557 28.0433 1.75201C27.4209 2.07159 26.8146 2.43878 26.2395 2.83982C27.0686 3.64941 31.7867 8.03948 35.5662 9.09219C36.3492 9.31025 37.5381 9.48069 37.7522 9.48069Z" fill="#C83F51"/>
  <path fill-rule="evenodd" clip-rule="evenodd" d="M25.4242 3.44135C24.9586 3.81356 24.5092 4.2196 24.0872 4.64445C25.4628 6.01674 31.6934 12.0636 36.1177 11.7841C36.1949 11.7829 36.3144 11.7728 36.4177 11.7628C36.7352 11.2828 37.0389 10.779 37.3302 10.2602C32.6806 10.6161 25.9259 3.94264 25.4242 3.44135Z" fill="#C83F51"/>
  <path fill-rule="evenodd" clip-rule="evenodd" d="M28.3024 18.4651C28.3584 18.4889 28.6223 18.6005 28.9447 18.7346C29.1526 18.821 29.3257 18.8925 29.4414 18.9388C30.034 18.5127 30.6328 18.0515 31.2266 17.5515C26.5259 16.5063 22.0717 11.7227 20.5604 9.95441C20.3575 10.4595 20.1758 10.9821 20.0264 11.5047C20.8032 12.6551 21.8837 13.9973 23.3527 15.2857C23.3527 15.2857 24.9026 16.6454 26.8284 17.7232C26.9093 17.7696 27.6762 18.1982 28.3024 18.4651Z" fill="#C83F51"/>
  <path fill-rule="evenodd" clip-rule="evenodd" d="M28.4306 19.6407C24.7955 18.7208 21.1393 14.5263 19.7251 12.7479C19.6031 13.3445 19.5135 13.951 19.46 14.5576C20.2853 15.6128 21.087 16.4274 21.7393 17.0277C21.7393 17.0277 23.6527 18.786 26.0554 20.0668C26.2931 20.1934 26.5222 20.3036 26.5222 20.3036C26.7114 20.3939 26.877 20.4666 27.004 20.5205C27.4696 20.2523 27.9451 19.959 28.4306 19.6407Z" fill="#C83F51"/>
  <path fill-rule="evenodd" clip-rule="evenodd" d="M32.0819 16.7143C32.1081 16.7193 32.118 16.7181 32.1666 16.7256C32.6359 16.2958 33.099 15.8396 33.5559 15.3571C28.7643 14.654 23.2395 8.87412 21.8876 7.38654C21.5701 7.88657 21.2726 8.41293 21.0137 8.94806C22.0955 10.2489 27.1497 16.0601 32.0819 16.7143Z" fill="#C83F51"/>
  <path d="M73.335 30C73.125 29.66 72.875 29.295 72.585 28.905C72.305 28.505 71.995 28.11 71.655 27.72C71.325 27.32 70.98 26.94 70.62 26.58C70.26 26.21 69.9 25.885 69.54 25.605V30H67.2V19.605H69.54V23.535C70.15 22.895 70.76 22.23 71.37 21.54C71.99 20.84 72.565 20.195 73.095 19.605H75.87C75.16 20.445 74.445 21.255 73.725 22.035C73.015 22.815 72.265 23.6 71.475 24.39C72.305 25.08 73.105 25.9 73.875 26.85C74.655 27.8 75.4 28.85 76.11 30H73.335ZM78.5986 24.795C78.5986 25.305 78.6586 25.765 78.7786 26.175C78.9086 26.585 79.0886 26.94 79.3186 27.24C79.5586 27.53 79.8486 27.755 80.1886 27.915C80.5286 28.075 80.9186 28.155 81.3586 28.155C81.7886 28.155 82.1736 28.075 82.5136 27.915C82.8636 27.755 83.1536 27.53 83.3836 27.24C83.6236 26.94 83.8036 26.585 83.9236 26.175C84.0536 25.765 84.1186 25.305 84.1186 24.795C84.1186 24.285 84.0536 23.825 83.9236 23.415C83.8036 22.995 83.6236 22.64 83.3836 22.35C83.1536 22.05 82.8636 21.82 82.5136 21.66C82.1736 21.5 81.7886 21.42 81.3586 21.42C80.9186 21.42 80.5286 21.505 80.1886 21.675C79.8486 21.835 79.5586 22.065 79.3186 22.365C79.0886 22.655 78.9086 23.01 78.7786 23.43C78.6586 23.84 78.5986 24.295 78.5986 24.795ZM86.5336 24.795C86.5336 25.685 86.3986 26.47 86.1286 27.15C85.8686 27.82 85.5086 28.385 85.0486 28.845C84.5886 29.295 84.0386 29.635 83.3986 29.865C82.7686 30.095 82.0886 30.21 81.3586 30.21C80.6486 30.21 79.9786 30.095 79.3486 29.865C78.7186 29.635 78.1686 29.295 77.6986 28.845C77.2286 28.385 76.8586 27.82 76.5886 27.15C76.3186 26.47 76.1836 25.685 76.1836 24.795C76.1836 23.905 76.3236 23.125 76.6036 22.455C76.8836 21.775 77.2586 21.205 77.7286 20.745C78.2086 20.285 78.7586 19.94 79.3786 19.71C80.0086 19.48 80.6686 19.365 81.3586 19.365C82.0686 19.365 82.7386 19.48 83.3686 19.71C83.9986 19.94 84.5486 20.285 85.0186 20.745C85.4886 21.205 85.8586 21.775 86.1286 22.455C86.3986 23.125 86.5336 23.905 86.5336 24.795ZM94.7542 19.605H97.0942V30H94.7542V25.59H90.8242V30H88.4842V19.605H90.8242V23.58H94.7542V19.605ZM104.24 30.21C102.55 30.21 101.26 29.74 100.37 28.8C99.4898 27.86 99.0498 26.525 99.0498 24.795C99.0498 23.935 99.1848 23.17 99.4548 22.5C99.7248 21.82 100.095 21.25 100.565 20.79C101.035 20.32 101.595 19.965 102.245 19.725C102.895 19.485 103.6 19.365 104.36 19.365C104.8 19.365 105.2 19.4 105.56 19.47C105.92 19.53 106.235 19.605 106.505 19.695C106.775 19.775 107 19.86 107.18 19.95C107.36 20.04 107.49 20.11 107.57 20.16L106.895 22.05C106.575 21.88 106.2 21.735 105.77 21.615C105.35 21.495 104.87 21.435 104.33 21.435C103.97 21.435 103.615 21.495 103.265 21.615C102.925 21.735 102.62 21.93 102.35 22.2C102.09 22.46 101.88 22.8 101.72 23.22C101.56 23.64 101.48 24.15 101.48 24.75C101.48 25.23 101.53 25.68 101.63 26.1C101.74 26.51 101.91 26.865 102.14 27.165C102.38 27.465 102.69 27.705 103.07 27.885C103.45 28.055 103.91 28.14 104.45 28.14C104.79 28.14 105.095 28.12 105.365 28.08C105.635 28.04 105.875 27.995 106.085 27.945C106.295 27.885 106.48 27.82 106.64 27.75C106.8 27.68 106.945 27.615 107.075 27.555L107.72 29.43C107.39 29.63 106.925 29.81 106.325 29.97C105.725 30.13 105.03 30.21 104.24 30.21ZM117.259 19.605V21.6H114.124V30H111.784V21.6H108.649V19.605H117.259ZM121.883 19.485C123.433 19.485 124.623 19.76 125.453 20.31C126.283 20.85 126.698 21.74 126.698 22.98C126.698 24.23 126.278 25.135 125.438 25.695C124.598 26.245 123.398 26.52 121.838 26.52H121.103V30H118.763V19.755C119.273 19.655 119.813 19.585 120.383 19.545C120.953 19.505 121.453 19.485 121.883 19.485ZM122.033 21.48C121.863 21.48 121.693 21.485 121.522 21.495C121.363 21.505 121.223 21.515 121.103 21.525V24.525H121.838C122.648 24.525 123.258 24.415 123.668 24.195C124.078 23.975 124.283 23.565 124.283 22.965C124.283 22.675 124.228 22.435 124.118 22.245C124.018 22.055 123.868 21.905 123.668 21.795C123.478 21.675 123.243 21.595 122.963 21.555C122.683 21.505 122.373 21.48 122.033 21.48ZM133.951 26.955C133.661 27.615 133.356 28.16 133.036 28.59C132.716 29.01 132.386 29.34 132.046 29.58C131.706 29.82 131.361 29.985 131.011 30.075C130.661 30.165 130.306 30.21 129.946 30.21C129.606 30.21 129.251 30.175 128.881 30.105C128.521 30.045 128.181 29.955 127.861 29.835L128.281 27.96C128.771 28.14 129.256 28.23 129.736 28.23C130.046 28.23 130.341 28.16 130.621 28.02C130.911 27.88 131.186 27.58 131.446 27.12C131.036 26.48 130.641 25.825 130.261 25.155C129.891 24.475 129.536 23.81 129.196 23.16C128.866 22.5 128.556 21.87 128.266 21.27C127.986 20.66 127.736 20.105 127.516 19.605H130.111C130.271 19.995 130.446 20.415 130.636 20.865C130.836 21.305 131.046 21.765 131.266 22.245C131.486 22.715 131.706 23.19 131.926 23.67C132.156 24.14 132.376 24.6 132.586 25.05C132.906 24.17 133.211 23.27 133.501 22.35C133.791 21.43 134.071 20.515 134.341 19.605H136.846C136.586 20.375 136.331 21.095 136.081 21.765C135.831 22.435 135.586 23.07 135.346 23.67C135.106 24.27 134.866 24.84 134.626 25.38C134.396 25.92 134.171 26.445 133.951 26.955ZM144.336 30C144.126 29.66 143.876 29.295 143.586 28.905C143.306 28.505 142.996 28.11 142.656 27.72C142.326 27.32 141.981 26.94 141.621 26.58C141.261 26.21 140.901 25.885 140.541 25.605V30H138.201V19.605H140.541V23.535C141.151 22.895 141.761 22.23 142.371 21.54C142.991 20.84 143.566 20.195 144.096 19.605H146.871C146.161 20.445 145.446 21.255 144.726 22.035C144.016 22.815 143.266 23.6 142.476 24.39C143.306 25.08 144.106 25.9 144.876 26.85C145.656 27.8 146.401 28.85 147.111 30H144.336ZM156.516 19.605V21.6H153.381V30H151.041V21.6H147.906V19.605H156.516ZM159.634 24.795C159.634 25.305 159.694 25.765 159.814 26.175C159.944 26.585 160.124 26.94 160.354 27.24C160.594 27.53 160.884 27.755 161.224 27.915C161.564 28.075 161.954 28.155 162.394 28.155C162.824 28.155 163.209 28.075 163.549 27.915C163.899 27.755 164.189 27.53 164.419 27.24C164.659 26.94 164.839 26.585 164.959 26.175C165.089 25.765 165.154 25.305 165.154 24.795C165.154 24.285 165.089 23.825 164.959 23.415C164.839 22.995 164.659 22.64 164.419 22.35C164.189 22.05 163.899 21.82 163.549 21.66C163.209 21.5 162.824 21.42 162.394 21.42C161.954 21.42 161.564 21.505 161.224 21.675C160.884 21.835 160.594 22.065 160.354 22.365C160.124 22.655 159.944 23.01 159.814 23.43C159.694 23.84 159.634 24.295 159.634 24.795ZM167.569 24.795C167.569 25.685 167.434 26.47 167.164 27.15C166.904 27.82 166.544 28.385 166.084 28.845C165.624 29.295 165.074 29.635 164.434 29.865C163.804 30.095 163.124 30.21 162.394 30.21C161.684 30.21 161.014 30.095 160.384 29.865C159.754 29.635 159.204 29.295 158.734 28.845C158.264 28.385 157.894 27.82 157.624 27.15C157.354 26.47 157.219 25.685 157.219 24.795C157.219 23.905 157.359 23.125 157.639 22.455C157.919 21.775 158.294 21.205 158.764 20.745C159.244 20.285 159.794 19.94 160.414 19.71C161.044 19.48 161.704 19.365 162.394 19.365C163.104 19.365 163.774 19.48 164.404 19.71C165.034 19.94 165.584 20.285 166.054 20.745C166.524 21.205 166.894 21.775 167.164 22.455C167.434 23.125 167.569 23.905 167.569 24.795ZM172.639 19.485C174.189 19.485 175.379 19.76 176.209 20.31C177.039 20.85 177.454 21.74 177.454 22.98C177.454 24.23 177.034 25.135 176.194 25.695C175.354 26.245 174.154 26.52 172.594 26.52H171.859V30H169.519V19.755C170.029 19.655 170.569 19.585 171.139 19.545C171.709 19.505 172.209 19.485 172.639 19.485ZM172.789 21.48C172.619 21.48 172.449 21.485 172.279 21.495C172.119 21.505 171.979 21.515 171.859 21.525V24.525H172.594C173.404 24.525 174.014 24.415 174.424 24.195C174.834 23.975 175.039 23.565 175.039 22.965C175.039 22.675 174.984 22.435 174.874 22.245C174.774 22.055 174.624 21.905 174.424 21.795C174.234 21.675 173.999 21.595 173.719 21.555C173.439 21.505 173.129 21.48 172.789 21.48ZM187.516 30.21C185.826 30.21 184.536 29.74 183.646 28.8C182.766 27.86 182.326 26.525 182.326 24.795C182.326 23.935 182.461 23.17 182.731 22.5C183.001 21.82 183.371 21.25 183.841 20.79C184.311 20.32 184.871 19.965 185.521 19.725C186.171 19.485 186.876 19.365 187.636 19.365C188.076 19.365 188.476 19.4 188.836 19.47C189.196 19.53 189.511 19.605 189.781 19.695C190.051 19.775 190.276 19.86 190.456 19.95C190.636 20.04 190.766 20.11 190.846 20.16L190.171 22.05C189.851 21.88 189.476 21.735 189.046 21.615C188.626 21.495 188.146 21.435 187.606 21.435C187.246 21.435 186.891 21.495 186.541 21.615C186.201 21.735 185.896 21.93 185.626 22.2C185.366 22.46 185.156 22.8 184.996 23.22C184.836 23.64 184.756 24.15 184.756 24.75C184.756 25.23 184.806 25.68 184.906 26.1C185.016 26.51 185.186 26.865 185.416 27.165C185.656 27.465 185.966 27.705 186.346 27.885C186.726 28.055 187.186 28.14 187.726 28.14C188.066 28.14 188.371 28.12 188.641 28.08C188.911 28.04 189.151 27.995 189.361 27.945C189.571 27.885 189.756 27.82 189.916 27.75C190.076 27.68 190.221 27.615 190.351 27.555L190.996 29.43C190.666 29.63 190.201 29.81 189.601 29.97C189.001 30.13 188.306 30.21 187.516 30.21ZM198.868 30C198.578 29.42 198.258 28.835 197.908 28.245C197.568 27.645 197.173 27.035 196.723 26.415C196.583 26.595 196.403 26.845 196.183 27.165C195.973 27.485 195.758 27.825 195.538 28.185C195.328 28.545 195.128 28.89 194.938 29.22C194.748 29.55 194.608 29.81 194.518 30H191.848C192.288 29.19 192.798 28.34 193.378 27.45C193.968 26.56 194.623 25.615 195.343 24.615L191.998 19.605H194.833L196.858 22.845L198.838 19.605H201.508L198.208 24.645C199.048 25.735 199.753 26.745 200.323 27.675C200.893 28.595 201.343 29.37 201.673 30H198.868ZM203.02 30V19.605H210.04V21.57H205.36V23.61H209.515V25.53H205.36V28.035H210.385V30H203.02ZM214.877 19.605C215.057 19.935 215.262 20.345 215.492 20.835C215.732 21.315 215.977 21.84 216.227 22.41C216.487 22.97 216.742 23.545 216.992 24.135C217.242 24.725 217.477 25.28 217.697 25.8C217.917 25.28 218.152 24.725 218.402 24.135C218.652 23.545 218.902 22.97 219.152 22.41C219.412 21.84 219.657 21.315 219.887 20.835C220.127 20.345 220.337 19.935 220.517 19.605H222.647C222.747 20.295 222.837 21.07 222.917 21.93C223.007 22.78 223.082 23.67 223.142 24.6C223.212 25.52 223.272 26.445 223.322 27.375C223.382 28.305 223.432 29.18 223.472 30H221.192C221.162 28.99 221.122 27.89 221.072 26.7C221.022 25.51 220.947 24.31 220.847 23.1C220.667 23.52 220.467 23.985 220.247 24.495C220.027 25.005 219.807 25.515 219.587 26.025C219.377 26.535 219.172 27.025 218.972 27.495C218.772 27.955 218.602 28.35 218.462 28.68H216.827C216.687 28.35 216.517 27.955 216.317 27.495C216.117 27.025 215.907 26.535 215.687 26.025C215.477 25.515 215.262 25.005 215.042 24.495C214.822 23.985 214.622 23.52 214.442 23.1C214.342 24.31 214.267 25.51 214.217 26.7C214.167 27.89 214.127 28.99 214.097 30H211.817C211.857 29.18 211.902 28.305 211.952 27.375C212.012 26.445 212.072 25.52 212.132 24.6C212.202 23.67 212.277 22.78 212.357 21.93C212.447 21.07 212.542 20.295 212.642 19.605H214.877Z" fill="black"/>
</svg>
