<svg width="28" height="20" viewBox="0 0 28 20" fill="none"
  xmlns="http://www.w3.org/2000/svg">
  <path fill-rule="evenodd" clip-rule="evenodd" d="M0 3.20711V5.7929L5.7929 0H3.20711L0 3.20711ZM1.7929 0H0V1.7929L1.7929 0ZM0 9.7929V7.20711L7.20711 0H9.7929L0 9.7929ZM0 11.2071V13.7929L13.7929 0H11.2071L0 11.2071ZM0 19.2071V20H1.7929L21.7929 0H19.2071L0 19.2071ZM17.7929 0H15.2071L0 15.2071V17.7929L17.7929 0ZM3.20711 20L23.2071 0H25.7929L5.7929 20H3.20711ZM7.20711 20H9.7929L28 1.7929V0H27.2071L7.20711 20ZM11.2071 20L28 3.20711V5.7929L13.7929 20H11.2071ZM15.2071 20H17.7929L28 9.7929V7.20711L15.2071 20ZM28 20H27.2071L28 19.2071V20ZM23.2071 20H25.7929L28 17.7929V15.2071L23.2071 20ZM21.7929 20H19.2071L28 11.2071V13.7929L21.7929 20Z" fill="#cecece"/>
</svg>
