<svg width="363" height="45" viewBox="0 0 363 45" fill="none"
  xmlns="http://www.w3.org/2000/svg">
  <path d="M192.764 23.544L189.596 29.232L193.106 36H190.172L187.364 30.492H185.96V36H183.314V23.544H185.96V28.512H187.418L190.136 23.544H192.764ZM199.903 23.256C201.043 23.256 202.027 23.514 202.855 24.03C203.683 24.534 204.319 25.272 204.763 26.244C205.207 27.216 205.429 28.392 205.429 29.772C205.429 31.128 205.207 32.298 204.763 33.282C204.319 34.254 203.683 34.998 202.855 35.514C202.027 36.03 201.043 36.288 199.903 36.288C198.763 36.288 197.773 36.036 196.933 35.532C196.105 35.016 195.469 34.272 195.025 33.3C194.581 32.316 194.359 31.14 194.359 29.772C194.359 28.428 194.581 27.27 195.025 26.298C195.481 25.314 196.123 24.564 196.951 24.048C197.791 23.52 198.775 23.256 199.903 23.256ZM199.903 25.236C198.991 25.236 198.301 25.596 197.833 26.316C197.377 27.036 197.149 28.188 197.149 29.772C197.149 31.356 197.383 32.508 197.851 33.228C198.319 33.948 199.003 34.308 199.903 34.308C200.815 34.308 201.499 33.954 201.955 33.246C202.411 32.526 202.639 31.368 202.639 29.772C202.639 28.176 202.411 27.024 201.955 26.316C201.499 25.596 200.815 25.236 199.903 25.236ZM215.103 36V30.546H210.981V36H208.335V23.544H210.981V28.458H215.103V23.544H217.749V36H215.103ZM226.19 23.256C226.97 23.256 227.648 23.37 228.224 23.598C228.8 23.814 229.364 24.15 229.916 24.606L228.602 26.136C227.882 25.548 227.126 25.254 226.334 25.254C225.446 25.254 224.738 25.62 224.21 26.352C223.694 27.072 223.436 28.206 223.436 29.754C223.436 31.266 223.694 32.388 224.21 33.12C224.738 33.84 225.452 34.2 226.352 34.2C226.82 34.2 227.246 34.116 227.63 33.948C228.014 33.768 228.416 33.516 228.836 33.192L230.06 34.722C229.616 35.178 229.064 35.556 228.404 35.856C227.756 36.144 227.036 36.288 226.244 36.288C225.128 36.288 224.15 36.036 223.31 35.532C222.47 35.028 221.816 34.29 221.348 33.318C220.88 32.334 220.646 31.146 220.646 29.754C220.646 28.398 220.886 27.234 221.366 26.262C221.846 25.278 222.506 24.534 223.346 24.03C224.186 23.514 225.134 23.256 226.19 23.256ZM240.545 23.544L240.257 25.614H237.107V36H234.461V25.614H231.149V23.544H240.545ZM246.65 23.544C248.27 23.544 249.524 23.88 250.412 24.552C251.312 25.224 251.762 26.226 251.762 27.558C251.762 28.95 251.318 30 250.43 30.708C249.542 31.404 248.354 31.752 246.866 31.752H245.444V36H242.798V23.544H246.65ZM246.65 29.808C247.418 29.808 248.006 29.634 248.414 29.286C248.822 28.938 249.026 28.362 249.026 27.558C249.026 26.154 248.222 25.452 246.614 25.452H245.444V29.808H246.65ZM259.83 32.364C259.47 33.3 259.068 34.038 258.624 34.578C258.192 35.106 257.67 35.502 257.058 35.766C256.458 36.018 255.696 36.192 254.772 36.288L254.412 34.488C255.216 34.368 255.828 34.182 256.248 33.93C256.668 33.666 257.016 33.246 257.292 32.67H256.428L252.576 23.544H255.294L258.084 31.158L260.532 23.544H263.214L259.83 32.364ZM274.632 23.544L271.464 29.232L274.974 36H272.04L269.232 30.492H267.828V36H265.182V23.544H267.828V28.512H269.286L272.004 23.544H274.632ZM285.419 23.544L285.131 25.614H281.981V36H279.335V25.614H276.023V23.544H285.419ZM291.953 23.256C293.093 23.256 294.077 23.514 294.905 24.03C295.733 24.534 296.369 25.272 296.813 26.244C297.257 27.216 297.479 28.392 297.479 29.772C297.479 31.128 297.257 32.298 296.813 33.282C296.369 34.254 295.733 34.998 294.905 35.514C294.077 36.03 293.093 36.288 291.953 36.288C290.813 36.288 289.823 36.036 288.983 35.532C288.155 35.016 287.519 34.272 287.075 33.3C286.631 32.316 286.409 31.14 286.409 29.772C286.409 28.428 286.631 27.27 287.075 26.298C287.531 25.314 288.173 24.564 289.001 24.048C289.841 23.52 290.825 23.256 291.953 23.256ZM291.953 25.236C291.041 25.236 290.351 25.596 289.883 26.316C289.427 27.036 289.199 28.188 289.199 29.772C289.199 31.356 289.433 32.508 289.901 33.228C290.369 33.948 291.053 34.308 291.953 34.308C292.865 34.308 293.549 33.954 294.005 33.246C294.461 32.526 294.689 31.368 294.689 29.772C294.689 28.176 294.461 27.024 294.005 26.316C293.549 25.596 292.865 25.236 291.953 25.236ZM304.236 23.544C305.856 23.544 307.11 23.88 307.998 24.552C308.898 25.224 309.348 26.226 309.348 27.558C309.348 28.95 308.904 30 308.016 30.708C307.128 31.404 305.94 31.752 304.452 31.752H303.03V36H300.384V23.544H304.236ZM304.236 29.808C305.004 29.808 305.592 29.634 306 29.286C306.408 28.938 306.612 28.362 306.612 27.558C306.612 26.154 305.808 25.452 304.2 25.452H303.03V29.808H304.236ZM322.198 23.256C322.978 23.256 323.656 23.37 324.232 23.598C324.808 23.814 325.372 24.15 325.924 24.606L324.61 26.136C323.89 25.548 323.134 25.254 322.342 25.254C321.454 25.254 320.746 25.62 320.218 26.352C319.702 27.072 319.444 28.206 319.444 29.754C319.444 31.266 319.702 32.388 320.218 33.12C320.746 33.84 321.46 34.2 322.36 34.2C322.828 34.2 323.254 34.116 323.638 33.948C324.022 33.768 324.424 33.516 324.844 33.192L326.068 34.722C325.624 35.178 325.072 35.556 324.412 35.856C323.764 36.144 323.044 36.288 322.252 36.288C321.136 36.288 320.158 36.036 319.318 35.532C318.478 35.028 317.824 34.29 317.356 33.318C316.888 32.334 316.654 31.146 316.654 29.754C316.654 28.398 316.894 27.234 317.374 26.262C317.854 25.278 318.514 24.534 319.354 24.03C320.194 23.514 321.142 23.256 322.198 23.256ZM333.708 29.286L337.344 36H334.428L332.106 31.068L329.82 36H326.994L330.54 29.376L327.282 23.544H330.18L332.142 27.702L334.194 23.544H337.002L333.708 29.286ZM346.961 23.544L346.673 25.47H342.173V28.71H346.097V30.618H342.173V34.056H346.997V36H339.527V23.544H346.961ZM362.015 36H359.423L359.153 30.942C359.069 29.43 359.027 28.146 359.027 27.09C359.027 26.526 359.033 26.118 359.045 25.866L356.939 34.668H354.437L352.187 25.848C352.235 26.58 352.259 27.402 352.259 28.314C352.259 29.286 352.235 30.18 352.187 30.996L351.917 36H349.343L350.315 23.544H353.681L355.733 32.13L357.659 23.544H361.061L362.015 36Z" fill="black"/>
  <path fill-rule="evenodd" clip-rule="evenodd" d="M79.3156 11.9738H89.6957V14.2565C89.6957 17.7356 88.5924 21.3708 87.2701 22.9987C88.2762 23.0263 89.6319 24.9234 89.5012 26.2729L89.5073 27.3591L88.9845 36.2421H79.3156V11.9738ZM85.2184 19.4033C85.8871 18.5037 86.2245 17.2521 86.2245 15.6426V15.2326H82.7807V20.7558C83.7655 20.7374 84.6774 20.2295 85.2154 19.4002H85.2184V19.4033ZM85.8689 34.345L86.2154 28.7147C86.3066 26.9399 85.8932 25.7404 84.9692 25.1101C84.3157 25.2723 83.6439 25.3579 82.9692 25.3579C82.9418 25.3579 82.9114 25.3579 82.8841 25.3579V34.348H85.8689V34.345Z" fill="#C83F51"/>
  <path fill-rule="evenodd" clip-rule="evenodd" d="M92.4315 11.9738H102.818V36.2421H99.3313V24.0024C99.3039 24.0024 99.2735 24.0024 99.2431 24.0024C98.5714 24.0024 97.8996 23.9198 97.2461 23.7545C96.3191 24.3879 95.9027 25.5874 95.9938 27.3591L96.5531 36.2421H93.1245L92.6047 27.3591L92.5682 26.6248C92.5682 24.596 93.1822 23.0232 94.4072 21.9033C93.4406 19.7399 92.4193 18.7454 92.4193 15.2815L92.4315 11.9738ZM96.9118 19.3176C97.4528 20.1499 98.3708 20.6548 99.3586 20.664V15.2234H95.9057V15.6334C95.9057 17.2491 96.24 18.5037 96.9118 19.4002V19.3176Z" fill="#C83F51"/>
  <path fill-rule="evenodd" clip-rule="evenodd" d="M105.802 28.2649H109.277V32.9895H112.38L112.726 26.9033C112.745 26.7258 112.754 26.5483 112.754 26.3708C112.754 25.8292 112.675 25.2907 112.52 24.7736C112.356 24.3054 111.982 23.9412 111.514 23.7913C110.827 24.0024 110.109 24.1095 109.392 24.1095C109.359 24.1095 109.319 24.1095 109.286 24.1095V20.8599C110.271 20.8446 111.188 20.3428 111.733 19.5135C112.401 18.6139 112.739 17.3593 112.739 15.7528V15.2265H109.277V18.8311H105.802V11.9769H116.192V14.3544C116.192 17.8764 115.52 20.4407 114.176 22.0471C114.958 22.1971 116.225 22.6928 116.222 27.044L116.186 27.7417L115.641 36.2453H105.802V28.2649Z" fill="#C83F51"/>
  <path fill-rule="evenodd" clip-rule="evenodd" d="M120.252 19.1799C121.55 17.9774 123.24 17.3746 125.325 17.3776L125.359 15.2112H118.863V11.9615H128.833V36.2299H125.359V28.3353H122.097L122.477 36.2421H119.006L118.495 24.8072C118.368 22.2644 118.954 20.3917 120.252 19.1799ZM121.918 25.0703H125.356V20.6426C124.198 20.6426 123.316 20.97 122.717 21.6248C122.118 22.2766 121.848 23.3353 121.903 24.8072L121.918 25.0703Z" fill="#C83F51"/>
  <path fill-rule="evenodd" clip-rule="evenodd" d="M132.098 11.9738H135.569V20.7497H138.973V11.9738H142.447V36.2391H138.973V23.9993H135.569V36.2391H132.098V11.9738Z" fill="#C83F51"/>
  <path fill-rule="evenodd" clip-rule="evenodd" d="M145.709 11.9738H149.183V19.489C149.262 19.4859 149.344 19.4829 149.426 19.4829C151.137 19.4829 152.791 20.1346 154.046 21.3035C155.32 22.5183 155.885 24.3849 155.745 26.9001L155.222 36.2391H145.706V11.9738H145.709ZM152.304 33.4913L152.651 27.405C152.742 25.9607 152.499 24.9051 151.921 24.2411C151.341 23.6015 150.517 23.2374 149.657 23.2374C149.596 23.2374 149.535 23.2405 149.475 23.2435V33.5035L152.304 33.4913ZM157.952 12.0227H161.426V36.2911H157.952V12.0227Z" fill="#C83F51"/>
  <path fill-rule="evenodd" clip-rule="evenodd" d="M164.642 11.9738H168.116V21.5544L171.554 18.6138V11.9738H174.989V36.2391H171.554V22.8763L168.116 25.8139V36.236H164.642V11.9738Z" fill="#C83F51"/>
  <path d="M172.21 8.12744H167.077V9.70027H172.21V8.12744Z" fill="#C83F51"/>
  <path d="M175.019 42.4701H79.2556V43.791H175.019V42.4701Z" fill="#C83F51"/>
  <path fill-rule="evenodd" clip-rule="evenodd" d="M10.6921 34.8752C8.38304 36.2604 6.41534 37.0993 5.0201 37.6157C3.35526 38.2307 0.5 39.1243 0.5 39.1243L0.890388 40.5659C1.60464 40.365 2.51321 40.0953 3.56008 39.7499C4.12378 39.5631 5.14264 39.2265 6.29105 38.7771C7.43945 38.3277 8.96949 37.6686 10.7481 36.7239C11.9858 37.0993 13.6909 37.5205 15.7514 37.7408C18.6469 38.051 20.8579 37.8148 22.3267 37.6509C24.3749 37.4218 27.1882 36.9231 30.4233 35.7634L29.5778 34.4611C27.1077 35.3299 24.9369 35.7564 23.2966 35.9784C21.6842 36.197 18.9393 36.5512 15.424 36.0384C13.4546 35.7493 11.8423 35.277 10.6921 34.8752Z" fill="#C83F51"/>
  <path fill-rule="evenodd" clip-rule="evenodd" d="M9.92363 36.1759C9.62953 36.0225 9.21638 35.7882 8.75772 35.4515C7.74411 34.7096 6.64297 33.9024 6.25609 32.4961C5.99349 31.5374 6.05827 30.2914 6.74626 29.241C7.39574 28.2506 8.31482 27.8681 8.64218 27.7377C8.88552 27.6408 10.3893 27.0698 11.9649 27.817C12.2327 27.9439 12.8804 28.2611 13.3934 28.9643C14.3159 30.2315 14.0621 31.7436 13.9571 32.3569C13.642 34.2214 12.4358 35.3846 12.0436 35.7617C11.8318 35.9644 11.641 36.1212 11.5027 36.2287C11.0913 35.9468 10.6799 35.6648 10.2703 35.3828C11.0755 34.8294 11.5325 34.2056 11.774 33.8161C12.0384 33.3861 12.8402 32.0907 12.4568 30.635C12.3763 30.3301 12.2222 29.7468 11.697 29.3221C10.9583 28.7229 9.91138 28.7775 9.18487 29.1088C8.44436 29.4437 8.07148 30.0464 7.93493 30.3002C7.80188 30.5874 7.5638 31.206 7.7161 31.9304C7.85265 32.5789 8.22904 32.979 8.7017 33.4671C9.07809 33.8566 9.72056 34.4223 10.6939 34.877L11.2243 35.0691L9.92363 36.1759Z" fill="#C83F51"/>
  <path fill-rule="evenodd" clip-rule="evenodd" d="M48.8712 20.2918C49.54 19.5216 50.1877 18.7057 50.8127 17.8439C44.0448 17.7804 35.4597 9.60487 33.4168 7.55701C33.2365 7.75968 33.0544 7.96411 32.8811 8.17559C32.608 8.50868 32.3506 8.84705 32.1021 9.19071C33.45 10.7046 42.2276 20.1684 48.8712 20.2918Z" fill="#C83F51"/>
  <path fill-rule="evenodd" clip-rule="evenodd" d="M64.7546 19.8124C66.3424 19.4899 69.9942 18.54 71.6346 16.4216C71.5243 16.0268 71.4 15.6374 71.2757 15.2391C69.2677 16.7159 65.8295 17.6024 65.4373 17.7028C65.2272 18.4289 65.0014 19.1321 64.7546 19.8124Z" fill="#C83F51"/>
  <path fill-rule="evenodd" clip-rule="evenodd" d="M66.6173 13.986C66.5736 13.9949 66.3985 14.0142 66.339 14.0125C66.1989 14.7474 66.0466 15.4365 65.8751 16.1361C67.1268 15.7678 69.5286 14.9536 70.7698 13.8697C70.5982 13.4556 70.4144 13.0502 70.2201 12.6449C68.8669 13.5349 66.8729 13.9367 66.6173 13.986Z" fill="#C83F51"/>
  <path fill-rule="evenodd" clip-rule="evenodd" d="M28.0756 25.2316C31.8709 29.7027 34.2798 30.8694 34.2798 30.8694C34.3585 30.9082 34.4251 30.9382 34.4653 30.9575C35.2776 30.5892 36.1634 30.1539 37.0983 29.6499C33.1804 28.0267 29.5146 24.3998 27.7727 22.4982C27.7727 23.3565 27.827 24.2165 27.925 25.066C27.9425 25.0836 27.9618 25.103 27.9828 25.1259C28.0318 25.1823 28.0668 25.2228 28.0756 25.2316Z" fill="#C83F51"/>
  <path fill-rule="evenodd" clip-rule="evenodd" d="M44.2548 41.121C44.1988 41.0964 43.7979 40.9149 43.7226 40.8726C42.3536 41.4295 40.9409 41.9194 39.5159 42.3195C42.772 44.0765 46.4168 45 50.1124 45C55.1017 45 59.9492 43.3205 63.8846 40.2399C52.5773 44.2862 44.6347 41.2726 44.2548 41.121Z" fill="#C83F51"/>
  <path fill-rule="evenodd" clip-rule="evenodd" d="M50.3852 37.7937C50.2574 37.7531 50.1016 37.7073 50.0351 37.6756C48.6206 38.5444 47.1431 39.3498 45.6358 40.0424C48.6486 40.8249 56.3653 42.4569 65.6314 38.2431C66.0235 38.0369 66.4454 37.8131 66.5837 37.7302C66.8043 37.4941 67.1597 37.0764 67.368 36.8173C67.8704 36.1987 68.3413 35.5502 68.7755 34.8823C60.222 40.4777 50.8421 37.9082 50.3852 37.7937Z" fill="#C83F51"/>
  <path fill-rule="evenodd" clip-rule="evenodd" d="M67.9564 8.91755C67.6798 8.54569 67.3857 8.18265 67.0828 7.82489C67.0548 8.36593 67.0163 8.89288 66.9743 9.41806C67.3209 9.29469 67.6518 9.12727 67.9564 8.91755Z" fill="#C83F51"/>
  <path fill-rule="evenodd" clip-rule="evenodd" d="M56.8626 4.02346C57.0552 3.11056 57.218 2.1677 57.3511 1.20016C55.0385 0.408867 52.6016 0 50.1543 0C50.0125 0 49.8637 0.00352471 49.7236 0.00528707C51.5513 1.76588 54.7812 4.37593 56.8626 4.02346Z" fill="#C83F51"/>
  <path fill-rule="evenodd" clip-rule="evenodd" d="M66.5894 12.5533C67.3246 12.3894 68.7426 11.9787 69.5549 11.3707C69.3046 10.9231 69.0385 10.4825 68.7566 10.0507C68.1632 10.4543 67.5014 10.7521 66.8064 10.9284C66.7434 11.4835 66.6716 12.0246 66.5894 12.5533Z" fill="#C83F51"/>
  <path fill-rule="evenodd" clip-rule="evenodd" d="M28.5046 28.1871C28.8968 29.7186 29.4552 31.2131 30.1607 32.6283C30.6684 32.4696 31.5315 32.1806 32.6483 31.7347C30.9975 30.9064 29.5428 29.4437 28.5046 28.1871Z" fill="#C83F51"/>
  <path fill-rule="evenodd" clip-rule="evenodd" d="M55.3801 33.6856C54.1931 34.7466 52.9327 35.7335 51.6232 36.6323C54.8094 37.1733 60.807 37.658 66.8063 34.5968C68.0615 33.957 69.1609 33.2398 70.1185 32.5102C70.4021 31.9004 70.88 30.8553 71.1076 30.2261C70.2043 30.8817 68.8931 31.7171 67.195 32.4291C66.6978 32.637 64.2732 33.6275 60.856 33.9077C59.4888 34.0223 57.5998 34.0487 55.3801 33.6856Z" fill="#C83F51"/>
  <path fill-rule="evenodd" clip-rule="evenodd" d="M32.6116 36.4949C33.1945 37.2333 33.8353 37.9436 34.5075 38.5974C38.0122 37.6087 61.9835 29.8896 62.9953 4.10106C62.4946 3.74683 61.9852 3.41022 61.467 3.10181C60.6775 12.0405 57.5211 18.681 53.5157 23.568C46.1754 32.5279 36.0323 35.6578 32.6116 36.4949Z" fill="#C83F51"/>
  <path fill-rule="evenodd" clip-rule="evenodd" d="M35.7134 39.7059L35.8938 39.8645C36.5082 40.3738 37.1542 40.8567 37.8212 41.2955C42.6897 40.1429 47.3095 38.0581 51.399 35.1643C60.6475 28.5731 65.4617 18.8907 65.7243 6.38677C65.2832 5.95676 64.828 5.53555 64.3448 5.1355C63.7916 14.1306 60.5285 20.9544 56.3427 26.067C49.1459 34.8382 39.2427 38.5885 35.7134 39.7059Z" fill="#C83F51"/>
  <path fill-rule="evenodd" clip-rule="evenodd" d="M64.1629 21.3404C63.7585 22.3115 63.3226 23.2403 62.8552 24.1285C64.632 23.7637 70.1045 22.4119 72.249 19.3084C72.1912 18.8925 72.1177 18.4784 72.0354 18.0642C69.3062 20.6073 64.4237 21.3105 64.1891 21.3422L64.1629 21.3404Z" fill="#C83F51"/>
  <path fill-rule="evenodd" clip-rule="evenodd" d="M62.0654 25.5453C61.577 26.3772 61.0606 27.1702 60.5249 27.928C62.6799 27.9968 68.674 27.7853 72.2768 23.1661C72.3328 23.0957 72.3486 23.0586 72.4571 22.9406C72.4694 22.3801 72.4571 21.8197 72.4309 21.2593C71.4733 22.1123 69.6089 23.612 67.2193 24.5143C66.1549 24.9162 65.1395 25.1435 64.982 25.177C63.8476 25.4272 62.8497 25.5171 62.0654 25.5453Z" fill="#C83F51"/>
  <path fill-rule="evenodd" clip-rule="evenodd" d="M59.5464 29.2709C59.5464 29.2709 59.5342 29.2709 59.5272 29.2709C59.3819 29.4578 59.2365 29.6498 59.0877 29.8314C58.3332 30.7425 57.5262 31.6237 56.6841 32.4538C59.3678 32.6335 67.5642 32.7075 71.6852 27.676C71.6852 27.676 71.8655 27.4769 71.911 27.4293C72.0738 26.682 72.2051 25.9225 72.2909 25.1611C67.2999 30.1733 59.8825 29.3203 59.5464 29.2709Z" fill="#C83F51"/>
  <path fill-rule="evenodd" clip-rule="evenodd" d="M30.831 33.8849C31.1058 34.3572 31.4017 34.8119 31.7098 35.263C35.4246 34.4488 58.1984 28.4075 60.1241 2.37393C59.6549 2.13778 59.17 1.90162 58.6851 1.70776C57.5297 9.67185 54.3663 15.8137 50.536 20.491C43.2989 29.3345 33.688 32.9614 30.831 33.8849Z" fill="#C83F51"/>
  <path fill-rule="evenodd" clip-rule="evenodd" d="M55.7091 7.31207C55.7757 7.3244 55.8422 7.33322 55.8422 7.33322C55.907 7.34203 55.963 7.34731 56.0085 7.35084C56.1993 6.73225 56.3744 6.10133 56.5354 5.45983C53.0272 5.50742 48.6121 0.930579 47.8629 0.125183C46.8948 0.222113 45.9302 0.389536 44.9849 0.609831C46.9053 2.46735 48.6174 3.80674 49.8883 4.71788C49.8883 4.71788 51.9313 6.18064 53.5629 6.75516C54.3086 7.01952 55.6286 7.29797 55.7091 7.31207Z" fill="#C83F51"/>
  <path fill-rule="evenodd" clip-rule="evenodd" d="M41.2509 1.84693C42.6847 3.51412 48.1554 9.37219 54.9443 10.3573C55.1666 9.80573 55.3767 9.24178 55.5762 8.66372C50.8933 8.3606 44.8029 2.4338 43.4252 1.03448C42.6899 1.26712 41.9582 1.54028 41.2509 1.84693Z" fill="#C83F51"/>
  <path fill-rule="evenodd" clip-rule="evenodd" d="M53.589 13.3322C53.8236 12.8599 54.1492 12.2008 54.3733 11.6985C46.7266 10.4067 40.9495 3.7203 39.9359 2.46375C39.0606 2.91315 38.2081 3.42952 37.3993 3.99347C38.5652 5.13195 45.2 11.3055 50.5149 12.7859C51.6161 13.0925 53.2879 13.3322 53.589 13.3322Z" fill="#C83F51"/>
  <path fill-rule="evenodd" clip-rule="evenodd" d="M36.2527 4.83942C35.5979 5.36284 34.966 5.93384 34.3725 6.53128C36.3069 8.46106 45.0688 16.9644 51.2905 16.5714C51.399 16.5697 51.5671 16.5556 51.7124 16.5415C52.1588 15.8665 52.5859 15.158 52.9956 14.4284C46.457 14.9289 36.9582 5.54436 36.2527 4.83942Z" fill="#C83F51"/>
  <path fill-rule="evenodd" clip-rule="evenodd" d="M40.3001 25.9665C40.3789 26 40.75 26.1569 41.2034 26.3454C41.4958 26.467 41.7391 26.5675 41.9019 26.6327C42.7352 26.0335 43.5773 25.3849 44.4123 24.6818C37.802 23.212 31.5383 16.485 29.413 13.9984C29.1277 14.7086 28.8721 15.4435 28.662 16.1784C29.7544 17.7962 31.2739 19.6837 33.3396 21.4954C33.3396 21.4954 35.5192 23.4076 38.2274 24.9232C38.3412 24.9884 39.4195 25.5911 40.3001 25.9665Z" fill="#C83F51"/>
  <path fill-rule="evenodd" clip-rule="evenodd" d="M40.4804 27.6197C35.3686 26.3261 30.227 20.4275 28.2383 17.9268C28.0667 18.7656 27.9407 19.6186 27.8654 20.4716C29.0261 21.9555 30.1535 23.101 31.0708 23.9452C31.0708 23.9452 33.7615 26.4178 37.1402 28.2189C37.4746 28.3969 37.7967 28.552 37.7967 28.552C38.0628 28.6789 38.2956 28.7811 38.4742 28.8569C39.1289 28.4797 39.7976 28.0673 40.4804 27.6197Z" fill="#C83F51"/>
  <path fill-rule="evenodd" clip-rule="evenodd" d="M45.6152 23.5045C45.6519 23.5116 45.6659 23.5098 45.7342 23.5204C46.3942 22.9159 47.0454 22.2744 47.6879 21.5959C40.9498 20.6072 33.1805 12.4792 31.2793 10.3873C30.8329 11.0905 30.4145 11.8307 30.0504 12.5832C31.5717 14.4126 38.6792 22.5846 45.6152 23.5045Z" fill="#C83F51"/>
</svg>
