<svg width="20" height="21" viewBox="0 0 20 21" fill="none"
  xmlns="http://www.w3.org/2000/svg">
  <path d="M15.672 6.81523L13.136 9.35123L14.55 10.7652L19.5 5.81523L14.55 0.865234L13.136 2.27923L15.672 4.81523H8.5C6.37827 4.81523 4.34344 5.65809 2.84315 7.15838C1.34285 8.65867 0.5 10.6935 0.5 12.8152C0.5 14.937 1.34285 16.9718 2.84315 18.4721C4.34344 19.9724 6.37827 20.8152 8.5 20.8152H17.5V18.8152H8.5C6.9087 18.8152 5.38258 18.1831 4.25736 17.0579C3.13214 15.9327 2.5 14.4065 2.5 12.8152C2.5 11.2239 3.13214 9.69781 4.25736 8.57259C5.38258 7.44738 6.9087 6.81523 8.5 6.81523H15.672Z" fill="#4F4F4F"/>
</svg>
