<svg width="20" height="21" viewBox="0 0 20 21" fill="none"
  xmlns="http://www.w3.org/2000/svg">
  <path d="M4.328 6.11504L6.864 8.65104L5.45 10.065L0.5 5.11504L5.45 0.165039L6.864 1.57904L4.328 4.11504H11.5C13.6217 4.11504 15.6566 4.95789 17.1569 6.45819C18.6571 7.95848 19.5 9.99331 19.5 12.115C19.5 14.2368 18.6571 16.2716 17.1569 17.7719C15.6566 19.2722 13.6217 20.115 11.5 20.115H2.5V18.115H11.5C13.0913 18.115 14.6174 17.4829 15.7426 16.3577C16.8679 15.2325 17.5 13.7063 17.5 12.115C17.5 10.5237 16.8679 8.99762 15.7426 7.8724C14.6174 6.74718 13.0913 6.11504 11.5 6.11504H4.328Z" fill="#4F4F4F"/>
</svg>
